<svg xmlns="http://www.w3.org/2000/svg" viewBox="0 0 1422 800"><g fill="hsl(231, 33%, 21%)" transform="matrix(.9 0 0 .9 70.55 39.5)"><circle r="2" cx="716" cy="400" opacity=".17"/><circle r="2" cx="714" cy="405" opacity=".42"/><circle r="2" cx="708" cy="406" opacity=".6"/><circle r="2" cx="703" cy="401" opacity=".65"/><circle r="2" cx="705" cy="393" opacity=".44"/><circle r="2" cx="714" cy="390" opacity=".77"/><circle r="2" cx="722" cy="397" opacity=".99"/><circle r="2" cx="720" cy="408" opacity=".66"/><circle r="2" cx="709" cy="413" opacity=".76"/><circle r="2" cx="698" cy="406" opacity=".46"/><circle r="2" cx="698" cy="392" opacity=".41"/><circle r="2" cx="711" cy="384" opacity=".28"/><circle r="2" cx="725" cy="391" opacity=".88"/><circle r="2" cx="727" cy="408" opacity=".4"/><circle r="2" cx="714" cy="419" opacity=".55"/><circle r="2" cx="696" cy="413" opacity=".17"/><circle r="2" cx="691" cy="394" opacity=".89"/><circle r="2" cx="705" cy="379" opacity=".97"/><circle r="2" cx="726" cy="383" opacity=".8"/><circle r="2" cx="735" cy="404" opacity=".5"/><circle r="2" cx="721" cy="423" opacity=".36"/><circle r="2" cx="697" cy="422" opacity=".27"/><circle r="2" cx="684" cy="400" opacity=".27"/><circle r="2" cx="696" cy="376" opacity=".16"/><circle r="2" cx="723" cy="374" opacity=".57"/><circle r="2" cx="741" cy="396" opacity=".9"/><circle r="2" cx="731" cy="424" opacity=".36"/><circle r="2" cx="702" cy="431" opacity=".27"/><circle r="2" cx="679" cy="409" opacity=".2"/><circle r="2" cx="686" cy="377" opacity=".3"/><circle r="2" cx="716" cy="365" opacity=".91"/><circle r="2" cx="744" cy="385" opacity=".7"/><circle r="2" cx="742" cy="420" opacity=".43"/><circle r="2" cx="710" cy="438" opacity=".45"/><circle r="2" cx="678" cy="421" opacity=".47"/><circle r="2" cx="675" cy="383" opacity=".5"/><circle r="2" cx="706" cy="359" opacity=".25"/><circle r="2" cx="743" cy="373" opacity=".33"/><circle r="2" cx="752" cy="413" opacity=".36"/><circle r="2" cx="723" cy="442" opacity=".4"/><circle r="2" cx="681" cy="434" opacity=".95"/><circle r="2" cx="666" cy="393" opacity=".7"/><circle r="2" cx="692" cy="357" opacity=".84"/><circle r="2" cx="738" cy="360" opacity=".76"/><circle r="2.5" cx="760" cy="401" opacity=".92"/><circle r="2.5" cx="737" cy="443" opacity=".27"/><circle r="2.5" cx="689" cy="446" opacity=".61"/><circle r="2.5" cx="659" cy="406" opacity=".14"/><circle r="2.5" cx="677" cy="359" opacity=".98"/><circle r="2.5" cx="727" cy="348" opacity=".91"/><circle r="2.5" cx="764" cy="386" opacity=".81"/><circle r="2.5" cx="753" cy="438" opacity=".61"/><circle r="2.5" cx="702" cy="456" opacity=".84"/><circle r="2.5" cx="658" cy="423" opacity=".98"/><circle r="2.5" cx="662" cy="367" opacity=".53"/><circle r="2.5" cx="712" cy="340" opacity=".76"/><circle r="2.5" cx="763" cy="368" opacity=".74"/><circle r="2.5" cx="767" cy="427" opacity=".22"/><circle r="2.5" cx="719" cy="463" opacity=".59"/><circle r="2.5" cx="662" cy="441" opacity=".59"/><circle r="2.5" cx="649" cy="380" opacity=".91"/><circle r="2.5" cx="694" cy="336" opacity=".16"/><circle r="2.5" cx="756" cy="350" opacity=".4"/><circle r="2.5" cx="778" cy="411" opacity=".39"/><circle r="2.5" cx="738" cy="463" opacity=".27"/><circle r="2.5" cx="672" cy="458" opacity=".87"/><circle r="2.5" cx="640" cy="398" opacity=".17"/><circle r="2.5" cx="674" cy="338" opacity=".39"/><circle r="2.5" cx="743" cy="334" opacity=".96"/><circle r="2.5" cx="785" cy="392" opacity=".68"/><circle r="2.5" cx="758" cy="458" opacity=".72"/><circle r="2.5" cx="688" cy="472" opacity=".23"/><circle r="2.5" cx="637" cy="420" opacity=".52"/><circle r="2.5" cx="654" cy="347" opacity=".99"/><circle r="2.5" cx="725" cy="322" opacity=".14"/><circle r="2.5" cx="785" cy="369" opacity=".75"/><circle r="2.5" cx="778" cy="446" opacity=".14"/><circle r="2.5" cx="708" cy="482" opacity=".39"/><circle r="2.5" cx="640" cy="443" opacity=".53"/><circle r="2.5" cx="636" cy="363" opacity=".97"/><circle r="2.5" cx="702" cy="316" opacity=".56"/><circle r="2.5" cx="778" cy="346" opacity=".85"/><circle r="2.5" cx="794" cy="427" opacity=".33"/><circle r="2.5" cx="733" cy="485" opacity=".15"/><circle r="2.5" cx="650" cy="465" opacity=".65"/><circle r="2.5" cx="622" cy="384" opacity=".57"/><circle r="2.5" cx="676" cy="316" opacity=".41"/><circle r="2.5" cx="763" cy="324" opacity=".37"/><circle r="2.5" cx="804" cy="403" opacity=".45"/><circle r="2.5" cx="759" cy="481" opacity=".57"/><circle r="2.5" cx="668" cy="485" opacity=".93"/><circle r="2.5" cx="616" cy="410" opacity=".28"/><circle r="2.5" cx="650" cy="324" opacity=".14"/><circle r="2.5" cx="742" cy="307" opacity=".58"/><circle r="2.5" cx="807" cy="376" opacity=".76"/><circle r="2.5" cx="784" cy="468" opacity=".9"/><circle r="2.5" cx="693" cy="499" opacity=".56"/><circle r="2.5" cx="617" cy="439" opacity=".72"/><circle r="2.5" cx="627" cy="341" opacity=".38"/><circle r="2.5" cx="715" cy="296" opacity=".89"/><circle r="2.5" cx="802" cy="347" opacity=".88"/><circle r="2.5" cx="806" cy="448" opacity=".84"/><circle r="2.5" cx="722" cy="506" opacity=".95"/><circle r="2.5" cx="627" cy="467" opacity=".46"/><circle r="2.5" cx="608" cy="365" opacity=".31"/><circle r="2.5" cx="684" cy="293" opacity=".25"/><circle r="2.5" cx="787" cy="319" opacity=".61"/><circle r="2.5" cx="821" cy="421" opacity=".85"/><circle r="2.5" cx="753" cy="505" opacity=".59"/><circle r="2.5" cx="645" cy="493" opacity=".84"/><circle r="2.5" cx="596" cy="395" opacity=".55"/><circle r="2.5" cx="653" cy="300" opacity=".47"/><circle r="2.5" cx="764" cy="296" opacity=".11"/><circle r="2.5" cx="828" cy="389" opacity=".48"/><circle r="2.5" cx="785" cy="493" opacity=".58"/><circle r="2.5" cx="672" cy="513" opacity=".31"/><circle r="2.5" cx="593" cy="429" opacity=".95"/><circle r="2.5" cx="623" cy="316" opacity=".99"/><circle r="2.5" cx="734" cy="279" opacity=".55"/><circle r="2.5" cx="826" cy="354" opacity=".99"/><circle r="2.5" cx="813" cy="473" opacity=".43"/><circle r="2.5" cx="705" cy="526" opacity=".77"/><circle r="2.5" cx="601" cy="463" opacity=".39"/><circle r="2.5" cx="597" cy="341" opacity=".96"/><circle r="2.5" cx="699" cy="272" opacity=".25"/><circle r="2.5" cx="813" cy="320" opacity=".54"/><circle r="2.5" cx="835" cy="443" opacity=".16"/><circle r="2.5" cx="742" cy="528" opacity=".89"/><circle r="2.5" cx="619" cy="496" opacity=".54"/><circle r="2.5" cx="580" cy="374" opacity=".32"/><circle r="2.5" cx="661" cy="274" opacity=".12"/><circle r="2.5" cx="790" cy="290" opacity=".65"/><circle r="2.5" cx="848" cy="407" opacity=".19"/><circle r="2.5" cx="779" cy="520" opacity=".12"/><circle r="2.5" cx="647" cy="523" opacity=".41"/><circle r="2.5" cx="572" cy="412" opacity=".2"/><circle r="2.5" cx="625" cy="289" opacity=".14"/><circle r="2.5" cx="758" cy="266" opacity=".45"/><circle r="2.5" cx="850" cy="367" opacity=".98"/><circle r="2.5" cx="814" cy="500" opacity=".64"/><circle r="2.5" cx="682" cy="542" opacity=".39"/><circle r="2.5" cx="575" cy="453" opacity=".71"/><circle r="2.5" cx="592" cy="314" opacity=".37"/><circle r="2.5" cx="720" cy="252" opacity=".13"/><circle r="2.5" cx="841" cy="327" opacity=".76"/><circle r="2.5" cx="844" cy="470" opacity=".34"/><circle r="2.5" cx="724" cy="550" opacity=".7"/><circle r="2.5" cx="590" cy="493" opacity=".53"/><circle r="2.5" cx="567" cy="348" opacity=".27"/><circle r="2.5" cx="677" cy="250" opacity=".78"/><circle r="2.5" cx="819" cy="289" opacity=".44"/><circle r="2.5" cx="864" cy="432" opacity=".26"/><circle r="2.5" cx="767" cy="547" opacity=".15"/><circle r="2.5" cx="618" cy="527" opacity=".32"/><circle r="2.5" cx="552" cy="390" opacity=".9"/><circle r="2.5" cx="633" cy="260" opacity=".68"/><circle r="2.5" cx="787" cy="258" opacity=".78"/><circle r="2.5" cx="872" cy="387" opacity=".9"/><circle r="2.5" cx="810" cy="530" opacity=".73"/><circle r="2.5" cx="655" cy="554" opacity=".84"/><circle r="2.5" cx="550" cy="436" opacity=".16"/><circle r="2.5" cx="593" cy="283" opacity=".38"/><circle r="2.5" cx="745" cy="237" opacity=".43"/><circle r="2.5" cx="868" cy="340" opacity=".7"/><circle r="2.5" cx="847" cy="501" opacity=".68"/><circle r="2.5" cx="700" cy="570" opacity=".93"/><circle r="2.5" cx="561" cy="483" opacity=".78"/><circle r="2.5" cx="560" cy="318" opacity=".24"/><circle r="2.5" cx="698" cy="227" opacity=".89"/><circle r="2.5" cx="850" cy="295" opacity=".17"/><circle r="2.5" cx="875" cy="461" opacity=".28"/><circle r="2.5" cx="749" cy="572" opacity=".58"/><circle r="2.5" cx="586" cy="525" opacity=".51"/><circle r="2.5" cx="537" cy="362" opacity=".62"/><circle r="2.5" cx="648" cy="232" opacity=".3"/><circle r="2.5" cx="819" cy="256" opacity=".59"/><circle r="2.5" cx="892" cy="413" opacity=".79"/><circle r="2.5" cx="798" cy="560" opacity=".27"/><circle r="2.5" cx="623" cy="561" opacity=".89"/><circle r="2.5" cx="527" cy="413" opacity=".49"/><circle r="2.5" cx="600" cy="252" opacity=".36"/><circle r="2.5" cx="776" cy="226" opacity=".89"/><circle r="2.5" cx="894" cy="361" opacity=".27"/><circle r="2.5" cx="844" cy="533" opacity=".7"/><circle r="2.5" cx="670" cy="585" opacity=".88"/><circle r="2.5" cx="533" cy="466" opacity=".69"/><circle r="2.5" cx="558" cy="285" opacity=".61"/><circle r="2.5" cx="725" cy="209" opacity=".56"/><circle r="2.5" cx="881" cy="308"/><circle r="2.5" cx="881" cy="494" opacity=".97"/><circle r="2.5" cx="724" cy="595" opacity=".67"/><circle r="2.5" cx="553" cy="517" opacity=".92"/><circle r="2.5" cx="527" cy="330" opacity=".3"/><circle r="2.5" cx="670" cy="206" opacity=".76"/><circle r="2.5" cx="853" cy="260" opacity=".62"/><circle r="2.5" cx="906" cy="444" opacity=".83"/><circle r="2.5" cx="780" cy="589" opacity=".79"/><circle r="2.5" cx="589" cy="561" opacity=".71"/><circle r="2.5" cx="509" cy="384" opacity=".2"/><circle r="2.5" cx="615" cy="220" opacity=".19"/><circle r="2.5" cx="811" cy="221" opacity=".25"/><circle r="2.5" cx="917" cy="387" opacity=".42"/><circle r="2.5" cx="833" cy="567" opacity=".43"/><circle r="2.5" cx="636" cy="594" opacity=".39"/><circle r="2.5" cx="506" cy="442" opacity=".75"/><circle r="2.5" cx="564" cy="250" opacity=".88"/><circle r="2.5" cx="758" cy="194" opacity=".82"/><circle r="2.5" cx="910" cy="328" opacity=".17"/><circle r="2.5" cx="880" cy="530" opacity=".72"/><circle r="2.5" cx="693" cy="613" opacity=".84"/><circle r="2.5" cx="521" cy="501" opacity=".98"/><circle r="2.5" cx="523" cy="294" opacity=".45"/><circle r="2.5" cx="699" cy="183" opacity=".87"/><circle r="2.5" cx="887" cy="272" opacity=".99"/><circle r="2.5" cx="915" cy="480" opacity=".87"/><circle r="2.5" cx="755" cy="616" opacity=".58"/><circle r="2.5" cx="552" cy="554" opacity=".26"/><circle r="2.5" cx="495" cy="349" opacity=".85"/><circle r="2.5" cx="636" cy="190" opacity=".13"/><circle r="2.5" cx="848" cy="223" opacity=".73"/><circle r="2.5" cx="935" cy="420" opacity=".48"/><circle r="2.5" cx="816" cy="600" opacity=".8"/><circle r="2.5" cx="599" cy="597" opacity=".49"/><circle r="2.5" cx="483" cy="412" opacity=".73"/><circle r="2.5" cx="577" cy="214" opacity=".2"/><circle r="2.5" cx="795" cy="186" opacity=".1"/><circle r="2.5" cx="938" cy="355" opacity=".75"/><circle r="2.5" cx="872" cy="567" opacity=".18"/><circle r="2.5" cx="657" cy="627" opacity=".85"/><circle r="2.5" cx="490" cy="477" opacity=".3"/><circle r="2.5" cx="526" cy="255" opacity=".51"/><circle r="2.5" cx="733" cy="165" opacity=".15"/><circle r="2.5" cx="921" cy="291" opacity=".78"/><circle r="2.5" cx="917" cy="519" opacity=".1"/><circle r="2.5" cx="723" cy="639" opacity=".14"/><circle r="2.5" cx="516" cy="539" opacity=".27"/><circle r="2.5" cx="487" cy="310" opacity=".21"/><circle r="2.5" cx="665" cy="162" opacity=".1"/><circle r="2.5" cx="887" cy="232" opacity=".44"/><circle r="2.5" cx="948" cy="458" opacity=".48"/><circle r="2.5" cx="791" cy="632" opacity=".56"/><circle r="2.5" cx="559" cy="593" opacity=".31"/><circle r="2.5" cx="465" cy="376" opacity=".53"/><circle r="2.5" cx="598" cy="179" opacity=".2"/><circle r="2.5" cx="836" cy="185" opacity=".44"/><circle r="2.5" cx="961" cy="389" opacity=".34"/><circle r="2.5" cx="856" cy="605" opacity=".72"/><circle r="2.5" cx="616" cy="634" opacity=".79"/><circle r="2.5" cx="462" cy="447" opacity=".3"/><circle r="2.5" cx="537" cy="215" opacity=".3"/><circle r="2.5" cx="772" cy="153" opacity=".97"/><circle r="2.5" cx="953" cy="318" opacity=".13"/><circle r="2.5" cx="912" cy="560" opacity=".19"/><circle r="2.5" cx="685" cy="657" opacity=".42"/><circle r="2.5" cx="480" cy="517" opacity=".53"/><circle r="2.5" cx="487" cy="268" opacity=".93"/><circle r="2.5" cx="701" cy="139" opacity=".14"/><circle r="2.5" cx="926" cy="250" opacity=".66"/><circle r="2.5" cx="954" cy="500" opacity=".94"/><circle r="2.5" cx="759" cy="660" opacity=".5"/><circle r="2.5" cx="517" cy="581" opacity=".18"/><circle r="2.5" cx="453" cy="335" opacity=".54"/><circle r="3" cx="626" cy="147" opacity=".31"/><circle r="3" cx="879" cy="191" opacity=".85"/><circle r="3" cx="978" cy="429" opacity=".46"/><circle r="3" cx="832" cy="641" opacity=".12"/><circle r="3" cx="573" cy="633" opacity=".24"/><circle r="3" cx="439" cy="410" opacity=".43"/><circle r="3" cx="555" cy="176" opacity=".71"/><circle r="3" cx="816" cy="147" opacity=".92"/><circle r="3" cx="982" cy="352" opacity=".23"/><circle r="3" cx="899" cy="602" opacity=".81"/><circle r="3" cx="642" cy="668" opacity=".94"/><circle r="3" cx="447" cy="487" opacity=".54"/><circle r="3" cx="494" cy="224" opacity=".83"/><circle r="3" cx="742" cy="122" opacity=".88"/><circle r="3" cx="963" cy="275" opacity=".67"/><circle r="3" cx="953" cy="545" opacity=".39"/><circle r="3" cx="720" cy="683" opacity=".94"/><circle r="3" cx="477" cy="561" opacity=".39"/><circle r="3" cx="448" cy="289" opacity=".45"/><circle r="3" cx="662" cy="118" opacity=".37"/><circle r="3" cx="922" cy="206" opacity=".39"/><circle r="3" cx="990" cy="473" opacity=".61"/><circle r="3" cx="800" cy="675" opacity=".2"/><circle r="3" cx="527" cy="624" opacity=".92"/><circle r="3" cx="422" cy="367" opacity=".49"/><circle r="3" cx="582" cy="138" opacity=".82"/><circle r="3" cx="863" cy="149" opacity=".41"/><circle r="3" cx="1005" cy="392" opacity=".31"/><circle r="3" cx="877" cy="644" opacity=".23"/><circle r="3" cx="595" cy="672" opacity=".5"/><circle r="3" cx="418" cy="450" opacity=".37"/><circle r="3" cx="510" cy="180" opacity=".91"/><circle r="3" cx="788" cy="111" opacity=".55"/><circle r="3" cx="997" cy="309" opacity=".2"/><circle r="3" cx="943" cy="592" opacity=".2"/><circle r="3" cx="675" cy="700" opacity=".82"/><circle r="3" cx="438" cy="532" opacity=".47"/><circle r="3" cx="452" cy="241" opacity=".2"/><circle r="3" cx="704" cy="95" opacity=".5"/><circle r="3" cx="965" cy="229" opacity=".85"/><circle r="3" cx="993" cy="522" opacity=".48"/><circle r="3" cx="761" cy="704" opacity=".57"/><circle r="3" cx="482" cy="607" opacity=".86"/><circle r="3" cx="412" cy="319" opacity=".58"/><circle r="3" cx="618" cy="103" opacity=".35"/><circle r="3" cx="911" cy="160" opacity=".59"/><circle r="3" cx="1022" cy="439" opacity=".57"/><circle r="3" cx="847" cy="683" opacity=".19"/><circle r="3" cx="546" cy="668" opacity=".68"/><circle r="3" cx="395" cy="406" opacity=".49"/><circle r="3" cx="535" cy="136" opacity=".25"/><circle r="3" cx="838" cy="109" opacity=".24"/><circle r="3" cx="1026" cy="349" opacity=".88"/><circle r="3" cx="924" cy="638" opacity=".29"/><circle r="3" cx="625" cy="709" opacity=".53"/><circle r="3" cx="403" cy="495" opacity=".58"/><circle r="3" cx="464" cy="192" opacity=".74"/><circle r="3" cx="752" cy="79" opacity=".84"/><circle r="3" cx="1005" cy="261" opacity=".58"/><circle r="3" cx="988" cy="572" opacity=".4"/><circle r="3" cx="715" cy="727" opacity=".43"/><circle r="3" cx="437" cy="581" opacity=".72"/><circle r="3" cx="410" cy="267" opacity=".47"/><circle r="3" cx="660" cy="74" opacity=".57"/><circle r="3" cx="959" cy="180" opacity=".37"/><circle r="3" cx="1031" cy="490" opacity=".24"/><circle r="3" cx="808" cy="718" opacity=".81"/><circle r="3" cx="495" cy="655" opacity=".35"/><circle r="3" cx="379" cy="356" opacity=".96"/><circle r="3" cx="568" cy="96" opacity=".68"/><circle r="3" cx="891" cy="115" opacity=".91"/><circle r="3" cx="1049" cy="397" opacity=".26"/><circle r="3" cx="897" cy="684" opacity=".9"/><circle r="3" cx="572" cy="710" opacity=".73"/><circle r="3" cx="374" cy="451" opacity=".33"/><circle r="3" cx="485" cy="143" opacity=".39"/><circle r="3" cx="805" cy="70" opacity=".49"/><circle r="3" cx="1040" cy="301" opacity=".17"/><circle r="3" cx="973" cy="624" opacity=".32"/><circle r="3" cx="664" cy="743" opacity=".41"/><circle r="3" cx="396" cy="546" opacity=".26"/><circle r="3" cx="417" cy="213" opacity=".24"/><circle r="3" cx="709" cy="51" opacity=".44"/><circle r="3" cx="1005" cy="210" opacity=".14"/><circle r="3" cx="1031" cy="545" opacity=".84"/><circle r="3" cx="762" cy="748" opacity=".9"/><circle r="3" cx="445" cy="632" opacity=".29"/><circle r="3" cx="371" cy="301" opacity=".6"/><circle r="3" cx="610" cy="60" opacity=".16"/><circle r="3" cx="944" cy="131" opacity=".66"/><circle r="3" cx="1064" cy="450" opacity=".36"/><circle r="3" cx="860" cy="726" opacity=".17"/><circle r="3" cx="517" cy="702" opacity=".66"/><circle r="3" cx="351" cy="400" opacity=".71"/><circle r="3" cx="516" cy="96" opacity=".19"/><circle r="3" cx="862" cy="71" opacity=".9"/><circle r="3" cx="1070" cy="349" opacity=".49"/><circle r="3" cx="949" cy="675" opacity=".14"/><circle r="3" cx="607" cy="750" opacity=".12"/><circle r="3" cx="360" cy="502" opacity=".15"/><circle r="3" cx="434" cy="159" opacity=".37"/><circle r="3" cx="765" cy="36" opacity=".66"/><circle r="3" cx="1047" cy="248" opacity=".53"/><circle r="3" cx="1021" cy="601" opacity=".93"/><circle r="3" cx="709" cy="771" opacity=".96"/><circle r="3" cx="397" cy="600" opacity=".96"/><circle r="3" cx="373" cy="243" opacity=".45"/><circle r="3" cx="660" cy="30" opacity=".49"/><circle r="3" cx="996" cy="156" opacity=".73"/><circle r="3" cx="1071" cy="508" opacity=".37"/><circle r="3" cx="815" cy="762" opacity=".27"/><circle r="3" cx="461" cy="684" opacity=".17"/><circle r="3" cx="336" cy="343" opacity=".2"/><circle r="3" cx="556" cy="53" opacity=".84"/><circle r="3" cx="920" cy="81" opacity=".69"/><circle r="3" cx="1093" cy="403" opacity=".23"/><circle r="3" cx="915" cy="724" opacity=".3"/><circle r="3" cx="548" cy="748" opacity=".4"/><circle r="3" cx="329" cy="451" opacity=".83"/><circle r="3" cx="461" cy="106" opacity=".98"/><circle r="3" cx="824" cy="30" opacity=".23"/><circle r="3" cx="1084" cy="295" opacity=".94"/><circle r="3" cx="1002" cy="658" opacity=".64"/><circle r="3" cx="651" cy="785" opacity=".32"/><circle r="3" cx="353" cy="558" opacity=".47"/><circle r="3" cx="384" cy="184" opacity=".11"/><circle r="3" cx="716" cy="7" opacity=".27"/><circle r="3" cx="1045" cy="192" opacity=".98"/><circle r="3" cx="1068" cy="569" opacity=".42"/><circle r="3" cx="762" cy="793" opacity=".59"/><circle r="3" cx="407" cy="655" opacity=".84"/><circle r="3" cx="331" cy="282" opacity=".12"/><circle r="3" cx="605" cy="15" opacity=".34"/><circle r="3" cx="978" cy="102" opacity=".72"/><circle r="3" cx="1107" cy="464" opacity=".53"/><circle r="3" cx="872" cy="768" opacity=".14"/><circle r="3" cx="487" cy="735" opacity=".22"/><circle r="3" cx="307" cy="393" opacity=".67"/><circle r="3" cx="498" cy="55" opacity=".42"/><circle r="3" cx="886" cy="34" opacity=".81"/><circle r="3" cx="1115" cy="350" opacity=".86"/><circle r="3" cx="972" cy="713" opacity=".58"/><circle r="3" cx="588" cy="790" opacity=".7"/><circle r="3" cx="315" cy="508" opacity=".97"/><circle r="3" cx="406" cy="125" opacity=".72"/><circle r="3" cx="778" cy="-6" opacity=".97"/><circle r="3" cx="1090" cy="236" opacity=".61"/><circle r="3" cx="1054" cy="631" opacity=".45"/><circle r="3" cx="702" cy="815" opacity=".24"/><circle r="3" cx="356" cy="617" opacity=".16"/><circle r="3" cx="336" cy="218" opacity=".5"/><circle r="3" cx="661" cy="-15" opacity=".2"/><circle r="3" cx="1034" cy="133" opacity=".83"/><circle r="3" cx="1111" cy="528" opacity=".24"/><circle r="3" cx="820" cy="807" opacity=".15"/><circle r="3" cx="427" cy="712" opacity=".81"/><circle r="3" cx="294" cy="329" opacity=".41"/><circle r="3" cx="545" cy="10" opacity=".63"/><circle r="3" cx="950" cy="49" opacity=".82"/><circle r="3" cx="1137" cy="411"/><circle r="3" cx="932" cy="765" opacity=".26"/><circle r="3" cx="523" cy="784" opacity=".41"/><circle r="3" cx="285" cy="449" opacity=".36"/><circle r="3" cx="439" cy="67" opacity=".85"/><circle r="3" cx="844" cy="-10" opacity=".99"/><circle r="3" cx="1129" cy="290" opacity=".96"/><circle r="3" cx="1030" cy="693" opacity=".63"/><circle r="3" cx="636" cy="828" opacity=".54"/><circle r="3" cx="310" cy="569" opacity=".81"/><circle r="3" cx="352" cy="153" opacity=".11"/><circle r="3" cx="725" cy="-37" opacity=".23"/><circle r="3" cx="1087" cy="175" opacity=".78"/><circle r="3" cx="1104" cy="595" opacity=".62"/><circle r="3" cx="760" cy="837" opacity=".77"/><circle r="3" cx="368" cy="678" opacity=".5"/><circle r="3" cx="291" cy="262" opacity=".41"/><circle r="3" cx="600" cy="-29" opacity=".62"/><circle r="3" cx="1013" cy="74" opacity=".97"/><circle r="3" cx="1149" cy="478" opacity=".48"/><circle r="3" cx="882" cy="812"/><circle r="3" cx="456" cy="767" opacity=".78"/><circle r="3" cx="263" cy="384" opacity=".32"/><circle r="3" cx="482" cy="14" opacity=".9"/><circle r="3" cx="913" cy="-2" opacity=".97"/><circle r="3" cx="1159" cy="352"/><circle r="3" cx="994" cy="752" opacity=".25"/><circle r="3" cx="567" cy="830" opacity=".58"/><circle r="3" cx="271" cy="511" opacity=".91"/><circle r="3" cx="379" cy="89" opacity=".34"/><circle r="3" cx="793" cy="-49" opacity=".86"/><circle r="3" cx="1134" cy="227" opacity=".33"/><circle r="3" cx="1086" cy="663" opacity=".42"/><circle r="3" cx="693" cy="859" opacity=".37"/><circle r="3" cx="314" cy="633" opacity=".84"/><circle r="3" cx="300" cy="192" opacity=".64"/><circle r="3" cx="664" cy="-60" opacity=".88"/><circle r="3" cx="1073" cy="112" opacity=".44"/><circle r="3" cx="1150" cy="549"/><circle r="3" cx="823" cy="851" opacity=".87"/><circle r="3" cx="391" cy="739" opacity=".97"/><circle r="3" cx="252" cy="314" opacity=".26"/><circle r="3" cx="535" cy="-34" opacity=".69"/><circle r="3" cx="982" cy="17" opacity=".27"/><circle r="3" cx="1181" cy="421" opacity=".2"/><circle r="3" cx="948" cy="807" opacity=".23"/><circle r="3" cx="496" cy="820" opacity=".6"/><circle r="3" cx="240" cy="446" opacity=".85"/><circle r="3" cx="417" cy="28" opacity=".63"/><circle r="3" cx="866" cy="-49" opacity=".94"/><circle r="3" cx="1173" cy="287" opacity=".61"/><circle r="3" cx="1056" cy="729" opacity=".79"/><circle r="3" cx="621" cy="869" opacity=".34"/><circle r="3" cx="266" cy="578" opacity=".6"/><circle r="3" cx="320" cy="121" opacity=".57"/><circle r="3" cx="734" cy="-80" opacity=".23"/><circle r="3" cx="1129" cy="160" opacity=".34"/><circle r="3" cx="1140" cy="622" opacity=".25"/><circle r="3" cx="756" cy="882" opacity=".72"/><circle r="3.5" cx="329" cy="699" opacity=".67"/><circle r="3.5" cx="252" cy="240" opacity=".35"/><circle r="3.5" cx="598" cy="-74" opacity=".96"/><circle r="3.5" cx="1049" cy="48" opacity=".31"/><circle r="3.5" cx="1191" cy="495" opacity=".46"/><circle r="3.5" cx="891" cy="856" opacity=".71"/><circle r="3.5" cx="424" cy="798" opacity=".11"/><circle r="3.5" cx="220" cy="374" opacity=".82"/><circle r="3.5" cx="467" cy="-28" opacity=".54"/><circle r="3.5" cx="940" cy="-38" opacity=".65"/><circle r="3.5" cx="1204" cy="356" opacity=".89"/><circle r="3.5" cx="1015" cy="792" opacity=".46"/><circle r="3.5" cx="545" cy="868" opacity=".13"/><circle r="3.5" cx="226" cy="514" opacity=".38"/><circle r="3.5" cx="353" cy="53" opacity=".4"/><circle r="3.5" cx="810" cy="-90" opacity=".86"/><circle r="3.5" cx="1178" cy="218" opacity=".74"/><circle r="3.5" cx="1117" cy="695" opacity=".14"/><circle r="3.5" cx="682" cy="902" opacity=".33"/><circle r="3.5" cx="272" cy="647" opacity=".95"/><circle r="3.5" cx="265" cy="164" opacity=".27"/><circle r="3.5" cx="669" cy="-104" opacity=".16"/><circle r="3.5" cx="1113" cy="91" opacity=".32"/><circle r="3.5" cx="1189" cy="572" opacity=".6"/><circle r="3.5" cx="825" cy="896" opacity=".11"/><circle r="3.5" cx="354" cy="765" opacity=".87"/><circle r="3.5" cx="211" cy="297" opacity=".89"/><circle r="3.5" cx="527" cy="-78" opacity=".38"/><circle r="3.5" cx="1014" cy="-14" opacity=".17"/><circle r="3.5" cx="1224" cy="432" opacity=".31"/><circle r="3.5" cx="962" cy="850" opacity=".97"/><circle r="3.5" cx="468" cy="855" opacity=".72"/><circle r="3.5" cx="196" cy="441" opacity=".68"/><circle r="3.5" cx="397" cy="-12" opacity=".38"/><circle r="3.5" cx="889" cy="-88" opacity=".6"/><circle r="3.5" cx="1218" cy="286" opacity=".44"/><circle r="3.5" cx="1082" cy="766" opacity=".93"/><circle r="3.5" cx="603" cy="911" opacity=".96"/><circle r="3.5" cx="222" cy="586" opacity=".67"/><circle r="3.5" cx="290" cy="88" opacity=".24"/><circle r="3.5" cx="746" cy="-124" opacity=".68"/><circle r="3.5" cx="1171" cy="146" opacity=".43"/><circle r="3.5" cx="1175" cy="651" opacity=".68"/><circle r="3.5" cx="751" cy="927" opacity=".22"/><circle r="3.5" cx="289" cy="718" opacity=".47"/><circle r="3.5" cx="214" cy="216" opacity=".64"/><circle r="3.5" cx="597" cy="-119" opacity=".34"/><circle r="3.5" cx="1086" cy="23" opacity=".43"/><circle r="3.5" cx="1232" cy="512" opacity=".94"/><circle r="3.5" cx="898" cy="900" opacity=".58"/><circle r="3.5" cx="391" cy="829" opacity=".2"/><circle r="3.5" cx="176" cy="362" opacity=".27"/><circle r="3.5" cx="454" cy="-71" opacity=".36"/><circle r="3.5" cx="969" cy="-72" opacity=".73"/><circle r="3.5" cx="1249" cy="362" opacity=".13"/><circle r="3.5" cx="1034" cy="833" opacity=".59"/><circle r="3.5" cx="521" cy="907" opacity=".68"/><circle r="3.5" cx="181" cy="514" opacity=".65"/><circle r="3.5" cx="328" cy="15" opacity=".86"/><circle r="3.5" cx="828" cy="-131" opacity=".77"/><circle r="3.5" cx="1222" cy="211" opacity=".71"/><circle r="3.5" cx="1147" cy="729" opacity=".64"/><circle r="3.5" cx="670" cy="945" opacity=".38"/><circle r="3.5" cx="229" cy="661" opacity=".88"/><circle r="3.5" cx="230" cy="135" opacity=".48"/><circle r="3.5" cx="675" cy="-149" opacity=".78"/><circle r="3.5" cx="1154" cy="72" opacity=".43"/><circle r="3.5" cx="1227" cy="596" opacity=".83"/><circle r="3.5" cx="825" cy="941" opacity=".15"/><circle r="3.5" cx="317" cy="789" opacity=".61"/><circle r="3.5" cx="170" cy="278" opacity=".14"/><circle r="3.5" cx="521" cy="-122" opacity=".95"/><circle r="3.5" cx="1048" cy="-43" opacity=".83"/><circle r="3.5" cx="1267" cy="444" opacity=".36"/><circle r="3.5" cx="975" cy="893" opacity=".59"/><circle r="3.5" cx="438" cy="889" opacity=".62"/><circle r="3.5" cx="151" cy="435" opacity=".56"/><circle r="3.5" cx="379" cy="-53" opacity=".81"/><circle r="3.5" cx="913" cy="-125" opacity=".68"/><circle r="3.5" cx="1263" cy="286" opacity=".39"/><circle r="3.5" cx="1106" cy="804" opacity=".91"/><circle r="3.5" cx="584" cy="952" opacity=".91"/><circle r="3.5" cx="177" cy="592" opacity=".83"/><circle r="3.5" cx="261" cy="54" opacity=".69"/><circle r="3.5" cx="759" cy="-167" opacity=".5"/><circle r="3.5" cx="1215" cy="133" opacity=".3"/><circle r="3.5" cx="1208" cy="680" opacity=".75"/><circle r="3.5" cx="744" cy="971" opacity=".1"/><circle r="3.5" cx="247" cy="737" opacity=".44"/><circle r="3.5" cx="176" cy="192" opacity=".46"/><circle r="3.5" cx="597" cy="-164" opacity=".74"/><circle r="3.5" cx="1125" cy="-1" opacity=".9"/><circle r="3.5" cx="1273" cy="532" opacity=".2"/><circle r="3.5" cx="904" cy="945" opacity=".55"/><circle r="3.5" cx="356" cy="858" opacity=".5"/><circle r="3.5" cx="133" cy="349" opacity=".53"/><circle r="3.5" cx="442" cy="-115" opacity=".82"/><circle r="3.5" cx="999" cy="-106" opacity=".84"/><circle r="3.5" cx="1293" cy="369" opacity=".17"/><circle r="3.5" cx="1052" cy="874" opacity=".45"/><circle r="3.5" cx="496" cy="944" opacity=".2"/><circle r="3.5" cx="136" cy="513" opacity=".42"/><circle r="3.5" cx="304" cy="-23" opacity=".73"/><circle r="3.5" cx="848" cy="-172" opacity=".74"/><circle r="3.5" cx="1267" cy="206" opacity=".17"/><circle r="3.5" cx="1176" cy="763" opacity=".43"/><circle r="3.5" cx="656" cy="988" opacity=".1"/><circle r="3.5" cx="185" cy="672" opacity=".64"/><circle r="3.5" cx="197" cy="104" opacity=".95"/><circle r="3.5" cx="682" cy="-193" opacity=".66"/><circle r="3.5" cx="1195" cy="55" opacity=".21"/><circle r="3.5" cx="1264" cy="621" opacity=".32"/><circle r="3.5" cx="824" cy="986" opacity=".54"/><circle r="3.5" cx="278" cy="812" opacity=".18"/><circle r="3.5" cx="129" cy="258" opacity=".82"/><circle r="3.5" cx="516" cy="-167" opacity=".63"/><circle r="3.5" cx="1083" cy="-72" opacity=".16"/><circle r="3.5" cx="1310" cy="459" opacity=".25"/><circle r="3.5" cx="986" cy="937" opacity=".91"/><circle r="3.5" cx="407" cy="922" opacity=".41"/><circle r="3.5" cx="107" cy="427" opacity=".21"/><circle r="3.5" cx="361" cy="-95" opacity=".26"/><circle r="3.5" cx="939" cy="-163" opacity=".55"/><circle r="3.5" cx="1309" cy="288" opacity=".92"/><circle r="3.5" cx="1129" cy="843" opacity=".12"/><circle r="3.5" cx="564" cy="992" opacity=".82"/><circle r="3.5" cx="132" cy="596" opacity=".56"/><circle r="3.5" cx="232" cy="19" opacity=".49"/><circle r="3.5" cx="773" cy="-210" opacity=".17"/><circle r="3.5" cx="1259" cy="122" opacity=".78"/><circle r="3.5" cx="1241" cy="711" opacity=".88"/><circle r="3.5" cx="735" cy="1016" opacity=".76"/><circle r="3.5" cx="205" cy="754" opacity=".65"/><circle r="3.5" cx="139" cy="165" opacity=".66"/><circle r="3.5" cx="599" cy="-209" opacity=".65"/><circle r="3.5" cx="1164" cy="-24" opacity=".2"/><circle r="3.5" cx="1313" cy="552" opacity=".53"/><circle r="3.5" cx="908" cy="990" opacity=".83"/><circle r="3.5" cx="321" cy="886" opacity=".36"/><circle r="3.5" cx="91" cy="334" opacity=".53"/><circle r="3.5" cx="431" cy="-159" opacity=".43"/><circle r="3.5" cx="1030" cy="-138" opacity=".99"/><circle r="3.5" cx="1338" cy="378" opacity=".95"/><circle r="3.5" cx="1069" cy="916" opacity=".68"/><circle r="3.5" cx="470" cy="981" opacity=".77"/><circle r="3.5" cx="91" cy="511" opacity=".73"/><circle r="3.5" cx="282" cy="-63" opacity=".86"/><circle r="3.5" cx="869" cy="-212" opacity=".2"/><circle r="3.5" cx="1312" cy="202" opacity=".23"/><circle r="3.5" cx="1203" cy="799" opacity=".48"/><circle r="3.5" cx="641" cy="1031" opacity=".63"/><circle r="3.5" cx="141" cy="682" opacity=".64"/><circle r="3.5" cx="165" cy="73" opacity=".41"/><circle r="3.5" cx="691" cy="-238" opacity=".33"/><circle r="3.5" cx="1238" cy="38" opacity=".69"/><circle r="3.5" cx="1301" cy="648" opacity=".68"/><circle r="3.5" cx="821" cy="1031" opacity=".3"/><circle r="3.5" cx="238" cy="834" opacity=".19"/><circle r="3.5" cx="89" cy="237" opacity=".82"/><circle r="3.5" cx="512" cy="-212" opacity=".83"/><circle r="3.5" cx="1120" cy="-99" opacity=".13"/><circle r="3.5" cx="1353" cy="474" opacity=".69"/><circle r="3.5" cx="996" cy="981" opacity=".55"/><circle r="3.5" cx="375" cy="954" opacity=".33"/><circle r="3.5" cx="62" cy="417" opacity=".58"/><circle r="3.5" cx="345" cy="-137" opacity=".16"/><circle r="3.5" cx="966" cy="-199" opacity=".16"/><circle r="3.5" cx="1354" cy="291" opacity=".23"/><circle r="3.5" cx="1151" cy="883" opacity=".12"/><circle r="3.5" cx="542" cy="1032" opacity=".46"/><circle r="3.5" cx="87" cy="600" opacity=".55"/><circle r="3.5" cx="205" cy="-18" opacity=".71"/><circle r="3.5" cx="789" cy="-252" opacity=".57"/><circle r="3.5" cx="1303" cy="113" opacity=".19"/><circle r="3.5" cx="1273" cy="744" opacity=".98"/><circle r="3.5" cx="726" cy="1060" opacity=".99"/><circle r="3.5" cx="163" cy="769" opacity=".3"/><circle r="3.5" cx="103" cy="138" opacity=".6"/><circle r="3.5" cx="603" cy="-254" opacity=".48"/><circle r="3.5" cx="1204" cy="-45" opacity=".36"/><circle r="3.5" cx="1353" cy="575" opacity=".51"/><circle r="3.5" cx="911" cy="1035" opacity=".22"/><circle r="3.5" cx="284" cy="912" opacity=".98"/><circle r="3.5" cx="48" cy="317" opacity=".93"/><circle r="3.5" cx="422" cy="-203" opacity=".64"/><circle r="3.5" cx="1063" cy="-170" opacity=".55"/><circle r="3.5" cx="1382" cy="388" opacity=".53"/><circle r="3.5" cx="1084" cy="959" opacity=".85"/><circle r="3.5" cx="442" cy="1017" opacity=".84"/><circle r="3.5" cx="46" cy="507" opacity=".37"/><circle r="3.5" cx="261" cy="-103" opacity=".16"/><circle r="3.5" cx="891" cy="-252" opacity=".42"/><circle r="3.5" cx="1358" cy="199" opacity=".98"/><circle r="3.5" cx="1230" cy="836" opacity=".85"/><circle r="3.5" cx="624" cy="1073" opacity=".65"/><circle r="3.5" cx="96" cy="691" opacity=".3"/><circle r="3.5" cx="133" cy="40" opacity=".66"/><circle r="3.5" cx="702" cy="-282" opacity=".53"/><circle r="3.5" cx="1281" cy="23" opacity=".33"/><circle r="3.5" cx="1337" cy="676" opacity=".39"/><circle r="3.5" cx="817" cy="1077" opacity=".55"/><circle r="3.5" cx="198" cy="855" opacity=".41"/><circle r="3.5" cx="50" cy="214" opacity=".88"/><circle r="3.5" cx="510" cy="-258" opacity=".81"/><circle r="3.5" cx="1157" cy="-125" opacity=".32"/><circle r="3.5" cx="1395" cy="491" opacity=".17"/><circle r="3.5" cx="1004" cy="1026" opacity=".66"/><circle r="3.5" cx="342" cy="986" opacity=".25"/><circle r="3.5" cx="18" cy="406" opacity=".89"/><circle r="3.5" cx="331" cy="-181" opacity=".98"/><circle r="3.5" cx="995" cy="-234" opacity=".74"/><circle r="3.5" cx="1399" cy="296" opacity=".16"/><circle r="3.5" cx="1171" cy="923" opacity=".93"/><circle r="3.5" cx="519" cy="1071" opacity=".75"/><circle r="3.5" cx="42" cy="601" opacity=".39"/><circle r="3.5" cx="179" cy="-55" opacity=".78"/><circle r="3.5" cx="807" cy="-294" opacity=".35"/><circle r="4" cx="1348" cy="105" opacity=".57"/><circle r="4" cx="1304" cy="777" opacity=".79"/><circle r="4" cx="714" cy="1104" opacity=".25"/><circle r="4" cx="119" cy="783" opacity=".57"/><circle r="4" cx="68" cy="109" opacity=".24"/><circle r="4" cx="608" cy="-299" opacity=".23"/><circle r="4" cx="1245" cy="-65" opacity=".66"/><circle r="4" cx="1392" cy="598" opacity=".29"/><circle r="4" cx="912" cy="1081" opacity=".2"/><circle r="4" cx="246" cy="938" opacity=".93"/><circle r="4" cx="6" cy="299" opacity=".5"/><circle r="4" cx="414" cy="-248" opacity=".12"/><circle r="4" cx="1097" cy="-201" opacity=".41"/><circle r="4" cx="1426" cy="400" opacity=".83"/><circle r="4" cx="1098" cy="1003" opacity=".85"/><circle r="4" cx="413" cy="1052" opacity=".24"/><circle r="4" cy="501" opacity=".41"/><circle r="4" cx="241" cy="-144" opacity=".86"/><circle r="4" cx="915" cy="-290" opacity=".67"/><circle r="4" cx="1403" cy="199" opacity=".21"/><circle r="4" cx="1255" cy="874" opacity=".68"/><circle r="4" cx="606" cy="1115" opacity=".38"/><circle r="4" cx="51" cy="698" opacity=".65"/><circle r="4" cx="103" cy="6" opacity=".59"/><circle r="4" cx="714" cy="-326" opacity=".31"/><circle r="4" cx="1325" cy="10" opacity=".77"/><circle r="4" cx="1372" cy="706" opacity=".27"/><circle r="4" cx="811" cy="1122" opacity=".97"/><circle r="4" cx="156" cy="875" opacity=".23"/><circle r="4" cx="11" cy="190" opacity=".9"/><circle r="4" cx="510" cy="-304" opacity=".65"/><circle r="4" cx="1195" cy="-150" opacity=".73"/><circle r="4" cx="1437" cy="510" opacity=".15"/><circle r="4" cx="1011" cy="1071" opacity=".93"/><circle r="4" cx="308" cy="1016" opacity=".24"/><circle r="4" cx="-26" cy="393" opacity=".38"/><circle r="4" cx="318" cy="-225" opacity=".36"/><circle r="4" cx="1025" cy="-269" opacity=".26"/><circle r="4" cx="1444" cy="302" opacity=".85"/><circle r="4" cx="1190" cy="965" opacity=".77"/><circle r="4" cx="494" cy="1110" opacity=".2"/><circle r="4" cx="-4" cy="601" opacity=".32"/><circle r="4" cx="154" cy="-94" opacity=".62"/><circle r="4" cx="826" cy="-336" opacity=".17"/><circle r="4" cx="1393" cy="99" opacity=".37"/><circle r="4" cx="1334" cy="812" opacity=".94"/><circle r="4" cx="701" cy="1148" opacity=".35"/><circle r="4" cx="75" cy="796" opacity=".68"/><circle r="4" cx="33" cy="79" opacity=".6"/><circle r="4" cx="615" cy="-345" opacity=".32"/><circle r="4" cx="1287" cy="-84" opacity=".79"/><circle r="4" cx="1430" cy="623" opacity=".12"/><circle r="4" cx="912" cy="1127" opacity=".48"/><circle r="4" cx="207" cy="963" opacity=".67"/><circle r="4" cx="-35" cy="280" opacity=".58"/><circle r="4" cx="408" cy="-294" opacity=".73"/><circle r="4" cx="1132" cy="-230" opacity=".8"/><circle r="4" cx="1470" cy="413" opacity=".67"/><circle r="4" cx="1110" cy="1047" opacity=".87"/><circle r="4" cx="382" cy="1086" opacity=".79"/><circle r="4" cx="-45" cy="494" opacity=".25"/><circle r="4" cx="223" cy="-186" opacity=".23"/><circle r="4" cx="941" cy="-329" opacity=".64"/><circle r="4" cx="1449" cy="199" opacity=".4"/><circle r="4" cx="1279" cy="913" opacity=".75"/><circle r="4" cx="586" cy="1157" opacity=".63"/><circle r="4" cx="6" cy="704" opacity=".92"/><circle r="4" cx="73" cy="-30" opacity=".26"/><circle r="4" cx="728" cy="-370" opacity=".52"/><circle r="4" cx="1369" cy="-2" opacity=".13"/><circle r="4" cx="1406" cy="737" opacity=".2"/><circle r="4" cx="803" cy="1167" opacity=".52"/><circle r="4" cx="114" cy="893" opacity=".31"/><circle r="4" cx="-27" cy="164" opacity=".55"/><circle r="4" cx="511" cy="-350" opacity=".32"/><circle r="4" cx="1234" cy="-174" opacity=".9"/><circle r="4" cx="1478" cy="530" opacity=".5"/><circle r="4" cx="1016" cy="1117" opacity=".48"/><circle r="4" cx="272" cy="1045" opacity=".37"/><circle r="4" cx="-70" cy="379" opacity=".38"/><circle r="4" cx="306" cy="-269" opacity=".31"/><circle r="4" cx="1056" cy="-303" opacity=".32"/><circle r="4" cx="1490" cy="310" opacity=".45"/><circle r="4" cx="1208" cy="1008" opacity=".54"/><circle r="4" cx="468" cy="1148" opacity=".27"/><circle r="4" cx="-50" cy="600" opacity=".54"/><circle r="4" cx="131" cy="-133" opacity=".96"/><circle r="4" cx="847" cy="-377" opacity=".76"/><circle r="4" cx="1439" cy="94" opacity=".91"/><circle r="4" cx="1363" cy="848" opacity=".92"/><circle r="4" cx="686" cy="1192" opacity=".46"/><circle r="4" cx="31" cy="808" opacity=".83"/><circle r="4" cy="47" opacity=".56"/><circle r="4" cx="623" cy="-390" opacity=".82"/><circle r="4" cx="1329" cy="-101" opacity=".79"/><circle r="4" cx="1468" cy="650" opacity=".75"/><circle r="4" cx="910" cy="1173" opacity=".97"/><circle r="4" cx="168" cy="986" opacity=".35"/><circle r="4" cx="-76" cy="259" opacity=".58"/><circle r="4" cx="404" cy="-340" opacity=".25"/><circle r="4" cx="1168" cy="-259" opacity=".98"/><circle r="4" cx="1513" cy="428" opacity=".79"/><circle r="4" cx="1121" cy="1092" opacity=".46"/><circle r="4" cx="350" cy="1120" opacity=".98"/><circle r="4" cx="-90" cy="485" opacity=".33"/><circle r="4" cx="205" cy="-229" opacity=".67"/><circle r="4" cx="968" cy="-366" opacity=".8"/><circle r="4" cx="1495" cy="202" opacity=".81"/><circle r="4" cx="1302" cy="953" opacity=".12"/><circle r="4" cx="565" cy="1198" opacity=".18"/><circle r="4" cx="-40" cy="708" opacity=".63"/><circle r="4" cx="45" cy="-66" opacity=".53"/><circle r="4" cx="743" cy="-413" opacity=".46"/><circle r="4" cx="1414" cy="-13" opacity=".79"/><circle r="4" cx="1439" cy="769" opacity=".52"/><circle r="4" cx="794" cy="1213" opacity=".32"/><circle r="4" cx="71" cy="910" opacity=".32"/><circle r="4" cx="-64" cy="137" opacity=".42"/><circle r="4" cx="513" cy="-396" opacity=".52"/><circle r="4" cx="1275" cy="-197" opacity=".38"/><circle r="4" cx="1519" cy="552" opacity=".78"/><circle r="4" cx="1020" cy="1163" opacity=".42"/><circle r="4" cx="236" cy="1073" opacity=".27"/><circle r="4" cx="-113" cy="363" opacity=".25"/><circle r="4" cx="296" cy="-314" opacity=".22"/><circle r="4" cx="1088" cy="-336" opacity=".74"/><circle r="4" cx="1535" cy="320" opacity=".52"/><circle r="4" cx="1225" cy="1051" opacity=".16"/><circle r="4" cx="441" cy="1185" opacity=".25"/><circle r="4" cx="-96" cy="597" opacity=".68"/><circle r="4" cx="109" cy="-174" opacity=".67"/><circle r="4" cx="869" cy="-418" opacity=".81"/><circle r="4" cx="1485" cy="90" opacity=".67"/><circle r="4" cx="1391" cy="885" opacity=".9"/><circle r="4" cx="670" cy="1235" opacity=".82"/><circle r="4" cx="-15" cy="817" opacity=".75"/><circle r="4" cx="-33" cy="15" opacity=".77"/><circle r="4" cx="633" cy="-435" opacity=".19"/><circle r="4" cx="1373" cy="-117" opacity=".25"/><circle r="4" cx="1505" cy="678" opacity=".34"/><circle r="4" cx="907" cy="1219" opacity=".21"/><circle r="4" cx="127" cy="1008" opacity=".52"/><circle r="4" cx="-117" cy="237" opacity=".47"/><circle r="4" cx="401" cy="-386" opacity=".93"/><circle r="4" cx="1205" cy="-287" opacity=".33"/><circle r="4" cx="1557" cy="445" opacity=".16"/><circle r="4" cx="1131" cy="1137" opacity=".22"/><circle r="4" cx="317" cy="1152" opacity=".36"/><circle r="4" cx="-136" cy="475" opacity=".74"/><circle r="4" cx="190" cy="-273" opacity=".75"/><circle r="4" cx="996" cy="-403" opacity=".73"/><circle r="4" cx="1542" cy="206" opacity=".37"/><circle r="4" cx="1324" cy="994" opacity=".55"/><circle r="4" cx="542" cy="1238" opacity=".69"/><circle r="4" cx="-87" cy="711" opacity=".53"/><circle r="4" cx="18" cy="-104" opacity=".39"/><circle r="4" cx="760" cy="-457" opacity=".87"/><circle r="4" cx="1459" cy="-22" opacity=".45"/><circle r="4" cx="1471" cy="802" opacity=".96"/><circle r="4" cx="783" cy="1258" opacity=".58"/><circle r="4" cx="27" cy="925" opacity=".43"/><circle r="4" cx="-101" cy="108" opacity=".73"/><circle r="4" cx="518" cy="-442" opacity=".6"/><circle r="4" cx="1316" cy="-218" opacity=".82"/><circle r="4" cx="1559" cy="575" opacity=".92"/><circle r="4" cx="1022" cy="1209" opacity=".97"/><circle r="4" cx="198" cy="1100" opacity=".17"/><circle r="4" cx="-156" cy="346" opacity=".86"/><circle r="4" cx="287" cy="-360" opacity=".41"/><circle r="4" cx="1122" cy="-368" opacity=".21"/><circle r="4" cx="1580" cy="331" opacity=".78"/><circle r="4" cx="1240" cy="1095" opacity=".91"/><circle r="4" cx="412" cy="1221" opacity=".17"/><circle r="4" cx="-143" cy="592" opacity=".18"/><circle r="4" cx="88" cy="-215" opacity=".21"/><circle r="4" cx="892" cy="-458" opacity=".38"/><circle r="4" cx="1532" cy="88" opacity=".64"/><circle r="4" cx="1417" cy="923" opacity=".59"/><circle r="4" cx="653" cy="1278" opacity=".17"/><circle r="4" cx="-60" cy="826" opacity=".35"/><circle r="4" cx="-65" cy="-19" opacity=".75"/><circle r="4" cx="645" cy="-481" opacity=".51"/><circle r="4" cx="1417" cy="-132" opacity=".58"/><circle r="4" cx="1541" cy="707" opacity=".79"/><circle r="4" cx="902" cy="1265" opacity=".3"/><circle r="4" cx="85" cy="1029" opacity=".74"/><circle r="4" cx="-157" cy="213" opacity=".66"/><circle r="4" cx="399" cy="-433" opacity=".55"/><circle r="4" cx="1244" cy="-313" opacity=".77"/><circle r="4" cx="1600" cy="463" opacity=".44"/><circle r="4" cx="1139" cy="1183" opacity=".85"/><circle r="4" cx="283" cy="1184" opacity=".32"/><circle r="4" cx="-181" cy="463" opacity=".54"/><circle r="4" cx="175" cy="-317" opacity=".65"/><circle r="4" cx="1025" cy="-439" opacity=".33"/><circle r="4" cx="1588" cy="211" opacity=".17"/><circle r="4" cx="1345" cy="1036" opacity=".85"/><circle r="4" cx="518" cy="1278" opacity=".69"/><circle r="4" cx="-133" cy="712" opacity=".53"/><circle r="4" cx="-8" cy="-142" opacity=".47"/><circle r="4" cx="779" cy="-499" opacity=".27"/><circle r="4" cx="1505" cy="-29" opacity=".84"/><circle r="4" cx="1502" cy="837" opacity=".73"/><circle r="4" cx="771" cy="1303" opacity=".22"/><circle r="4" cx="-17" cy="939" opacity=".76"/><circle r="4" cx="-137" cy="78" opacity=".81"/><circle r="4" cx="524" cy="-488" opacity=".88"/><circle r="4" cx="1358" cy="-238" opacity=".61"/><circle r="4" cx="1599" cy="600" opacity=".88"/><circle r="4" cx="1023" cy="1256" opacity=".35"/><circle r="4" cx="159" cy="1126" opacity=".28"/><circle r="4" cx="-199" cy="327" opacity=".25"/><circle r="4" cx="280" cy="-406" opacity=".87"/><circle r="4" cx="1157" cy="-399" opacity=".58"/><circle r="4" cx="1625" cy="343" opacity=".99"/><circle r="4" cx="1253" cy="1140" opacity=".29"/><circle r="4" cx="381" cy="1257" opacity=".11"/><circle r="4" cx="-189" cy="586" opacity=".85"/><circle r="4.5" cx="68" cy="-258" opacity=".98"/><circle r="4.5" cx="917" cy="-498" opacity=".12"/><circle r="4.5" cx="1579" cy="88" opacity=".36"/><circle r="4.5" cx="1443" cy="962" opacity=".17"/><circle r="4.5" cx="633" cy="1321" opacity=".75"/><circle r="4.5" cx="-107" cy="833" opacity=".58"/><circle r="4.5" cx="-96" cy="-55" opacity=".28"/><circle r="4.5" cx="658" cy="-525" opacity=".52"/><circle r="4.5" cx="1462" cy="-145" opacity=".2"/><circle r="4.5" cx="1577" cy="737" opacity=".54"/><circle r="4.5" cx="895" cy="1312" opacity=".41"/><circle r="4.5" cx="43" cy="1048" opacity=".61"/><circle r="4.5" cx="-196" cy="187" opacity=".24"/><circle r="4.5" cx="399" cy="-479" opacity=".52"/><circle r="4.5" cx="1283" cy="-338" opacity=".95"/><circle r="4.5" cx="1642" cy="483" opacity=".67"/><circle r="4.5" cx="1145" cy="1229" opacity=".57"/><circle r="4.5" cx="247" cy="1214" opacity=".27"/><circle r="4.5" cx="-226" cy="450" opacity=".81"/><circle r="4.5" cx="162" cy="-362" opacity=".89"/><circle r="4.5" cx="1056" cy="-474" opacity=".14"/><circle r="4.5" cx="1634" cy="218" opacity=".89"/><circle r="4.5" cx="1364" cy="1079" opacity=".44"/><circle r="4.5" cx="492" cy="1317" opacity=".74"/><circle r="4.5" cx="-180" cy="711" opacity=".67"/><circle r="4.5" cx="-33" cy="-182" opacity=".83"/><circle r="4.5" cx="799" cy="-542" opacity=".95"/><circle r="4.5" cx="1552" cy="-35" opacity=".69"/><circle r="4.5" cx="1533" cy="873" opacity=".25"/><circle r="4.5" cx="757" cy="1348" opacity=".65"/><circle r="4.5" cx="-63" cy="952" opacity=".7"/><circle r="4.5" cx="-172" cy="47" opacity=".16"/><circle r="4.5" cx="531" cy="-535" opacity=".94"/><circle r="4.5" cx="1401" cy="-257" opacity=".53"/><circle r="4.5" cx="1638" cy="626" opacity=".5"/><circle r="4.5" cx="1022" cy="1303" opacity=".49"/><circle r="4.5" cx="119" cy="1150" opacity=".68"/><circle r="4.5" cx="-241" cy="307" opacity=".99"/><circle r="4.5" cx="274" cy="-453" opacity=".46"/><circle r="4.5" cx="1193" cy="-429" opacity=".79"/><circle r="4.5" cx="1670" cy="358" opacity=".7"/><circle r="4.5" cx="1265" cy="1185" opacity=".15"/><circle r="4.5" cx="350" cy="1292" opacity=".38"/><circle r="4.5" cx="-235" cy="578" opacity=".78"/><circle r="4.5" cx="49" cy="-301" opacity=".88"/><circle r="4.5" cx="944" cy="-537" opacity=".98"/><circle r="4.5" cx="1626" cy="89" opacity=".7"/><circle r="4.5" cx="1467" cy="1002" opacity=".87"/><circle r="4.5" cx="613" cy="1363" opacity=".8"/><circle r="4.5" cx="-153" cy="838" opacity=".29"/><circle r="4.5" cx="-125" cy="-91" opacity=".91"/><circle r="4.5" cx="672" cy="-570" opacity=".2"/><circle r="4.5" cx="1507" cy="-157" opacity=".25"/><circle r="4.5" cx="1611" cy="769" opacity=".17"/><circle r="4.5" cx="887" cy="1358" opacity=".65"/><circle r="4.5" cx="-1" cy="1066"/><circle r="4.5" cx="-235" cy="161" opacity=".1"/><circle r="4.5" cx="401" cy="-526" opacity=".4"/><circle r="4.5" cx="1324" cy="-362" opacity=".5"/><circle r="4.5" cx="1684" cy="504" opacity=".45"/><circle r="4.5" cx="1150" cy="1276" opacity=".21"/><circle r="4.5" cx="210" cy="1244" opacity=".26"/><circle r="4.5" cx="-270" cy="435" opacity=".17"/><circle r="4.5" cx="151" cy="-408" opacity=".92"/><circle r="4.5" cx="1089" cy="-509" opacity=".53"/><circle r="4.5" cx="1681" cy="227" opacity=".58"/><circle r="4.5" cx="1381" cy="1123" opacity=".76"/><circle r="4.5" cx="465" cy="1356" opacity=".76"/><circle r="4.5" cx="-227" cy="709" opacity=".27"/><circle r="4.5" cx="-57" cy="-223" opacity=".82"/><circle r="4.5" cx="820" cy="-584" opacity=".9"/><circle r="4.5" cx="1599" cy="-40" opacity=".26"/><circle r="4.5" cx="1562" cy="910" opacity=".16"/><circle r="4.5" cx="742" cy="1393" opacity=".48"/><circle r="4.5" cx="-108" cy="963" opacity=".26"/><circle r="4.5" cx="-206" cy="14" opacity=".2"/><circle r="4.5" cx="540" cy="-581" opacity=".87"/><circle r="4.5" cx="1445" cy="-275" opacity=".57"/><circle r="4.5" cx="1676" cy="653" opacity=".69"/><circle r="4.5" cx="1020" cy="1350" opacity=".72"/><circle r="4.5" cx="78" cy="1174" opacity=".92"/><circle r="4.5" cx="-283" cy="285" opacity=".51"/><circle r="4.5" cx="270" cy="-500" opacity=".35"/><circle r="4.5" cx="1230" cy="-458" opacity=".59"/><circle r="4.5" cx="1715" cy="373" opacity=".37"/><circle r="4.5" cx="1276" cy="1231" opacity=".57"/><circle r="4.5" cx="317" cy="1326" opacity=".56"/><circle r="4.5" cx="-282" cy="568" opacity=".42"/><circle r="4.5" cx="32" cy="-345" opacity=".67"/><circle r="4.5" cx="972" cy="-575" opacity=".77"/><circle r="4.5" cx="1673" cy="92" opacity=".78"/><circle r="4.5" cx="1491" cy="1044" opacity=".43"/><circle r="4.5" cx="590" cy="1405" opacity=".2"/><circle r="4.5" cx="-201" cy="842" opacity=".97"/><circle r="4.5" cx="-154" cy="-129" opacity=".34"/><circle r="4.5" cx="689" cy="-615" opacity=".8"/><circle r="4.5" cx="1554" cy="-168" opacity=".75"/><circle r="4.5" cx="1645" cy="803" opacity=".62"/><circle r="4.5" cx="877" cy="1404" opacity=".38"/><circle r="4.5" cx="-45" cy="1083" opacity=".65"/><circle r="4.5" cx="-273" cy="132" opacity=".47"/><circle r="4.5" cx="404" cy="-574" opacity=".29"/><circle r="4.5" cx="1365" cy="-385" opacity=".11"/><circle r="4.5" cx="1726" cy="527" opacity=".23"/><circle r="4.5" cx="1153" cy="1323" opacity=".46"/><circle r="4.5" cx="172" cy="1272" opacity=".35"/><circle r="4.5" cx="-315" cy="418" opacity=".6"/><circle r="4.5" cx="141" cy="-454" opacity=".61"/><circle r="4.5" cx="1122" cy="-542" opacity=".42"/></g></svg>