<svg xmlns="http://www.w3.org/2000/svg" viewBox="0 0 1422 800"><g fill="hsl(0, 0%, 100%)"><circle r=".5" cx="766" cy="407" opacity=".44"/><circle r=".5" cx="711" cy="457" opacity=".16"/><circle r=".5" cx="653" cy="407" opacity=".45"/><circle r=".5" cx="696" cy="342" opacity=".23"/><circle r=".5" cx="768" cy="377" opacity=".2"/><circle r=".5" cx="742" cy="454" opacity=".69"/><circle r=".5" cx="660" cy="439" opacity=".94"/><circle r=".5" cx="665" cy="353" opacity=".79"/><circle r=".5" cx="752" cy="347" opacity=".99"/><circle r=".5" cx="770" cy="434" opacity=".62"/><circle r=".5" cx="684" cy="464" opacity=".68"/><circle r=".5" cx="642" cy="381" opacity=".79"/><circle r=".5" cx="721" cy="328" opacity=".73"/><circle r=".5" cx="785" cy="400" opacity=".16"/><circle r=".5" cx="720" cy="475" opacity=".73"/><circle r=".5" cx="637" cy="420" opacity=".44"/><circle r=".5" cx="681" cy="327" opacity=".82"/><circle r=".5" cx="780" cy="360" opacity=".53"/><circle r=".5" cx="760" cy="465" opacity=".26"/><circle r=".5" cx="652" cy="458" opacity=".52"/><circle r=".5" cx="644" cy="348" opacity=".75"/><circle r=".5" cx="754" cy="326" opacity=".31"/><circle r=".5" cx="791" cy="434" opacity=".45"/><circle r=".5" cx="688" cy="485" opacity=".37"/><circle r=".5" cx="622" cy="388" opacity=".74"/><circle r=".5" cx="712" cy="309" opacity=".53"/><circle r=".5" cx="803" cy="388" opacity=".63"/><circle r=".5" cx="735" cy="491" opacity=".28"/><circle r=".5" cx="622" cy="436" opacity=".93"/><circle r=".5" cx="663" cy="316" opacity=".49"/><circle r=".5" cx="790" cy="341" opacity=".55"/><circle r=".5" cx="781" cy="471" opacity=".43"/><circle r=".5" cx="649" cy="480" opacity=".73"/><circle r=".5" cx="622" cy="348" opacity=".17"/><circle r=".5" cx="752" cy="304" opacity=".77"/><circle r=".5" cx="813" cy="428" opacity=".54"/><circle r=".5" cx="696" cy="506" opacity=".94"/><circle r=".5" cx="602" cy="399" opacity=".72"/><circle r=".5" cx="697" cy="291" opacity=".81"/><circle r=".5" cx="819" cy="372" opacity=".18"/><circle r=".5" cx="753" cy="505" opacity=".39"/><circle r=".5" cx="611" cy="456" opacity=".31"/><circle r=".5" cx="641" cy="308" opacity=".23"/><circle r=".5" cx="795" cy="318" opacity=".55"/><circle r=".5" cx="805" cy="473" opacity=".34"/><circle r=".5" cx="650" cy="504" opacity=".34"/><circle r=".5" cx="599" cy="353" opacity=".38"/><circle r=".5" cx="744" cy="281" opacity=".96"/><circle r=".5" cx="834" cy="417" opacity=".4"/><circle r=".5" cx="710" cy="526" opacity=".22"/><circle r=".5" cx="585" cy="416"/><circle r=".5" cx="679" cy="275" opacity=".58"/><circle r=".5" cx="832" cy="351" opacity=".25"/><circle r=".5" cx="776" cy="515" opacity=".87"/><circle r=".5" cx="605" cy="480" opacity=".99"/><circle r=".5" cx="617" cy="304" opacity=".71"/><circle r=".5" cx="795" cy="293" opacity=".13"/><circle r=".5" cx="829" cy="470" opacity=".49"/><circle r=".5" cx="657" cy="528" opacity=".47"/><circle r=".5" cx="576" cy="362" opacity=".35"/><circle r=".5" cx="731" cy="260" opacity=".42"/><circle r=".5" cx="854" cy="401" opacity=".93"/><circle r=".5" cx="728" cy="544" opacity=".3"/><circle r=".5" cx="569" cy="436" opacity=".17"/><circle r=".5" cx="656" cy="263" opacity=".38"/><circle r=".5" cx="841" cy="327" opacity=".57"/><circle r=".5" cx="801" cy="520" opacity=".66"/><circle r=".5" cx="602" cy="506" opacity=".62"/><circle r=".5" cx="590" cy="305" opacity=".69"/><circle r=".5" cx="790" cy="267" opacity=".73"/><circle r=".5" cx="855" cy="461" opacity=".78"/><circle r=".5" cx="669" cy="552" opacity=".94"/><circle r=".5" cx="554" cy="377" opacity=".14"/><circle r=".5" cx="713" cy="239" opacity=".79"/><circle r=".5" cx="872" cy="381" opacity=".82"/><circle r=".5" cx="751" cy="558" opacity=".73"/><circle r=".5" cx="558" cy="461" opacity=".18"/><circle r=".5" cx="630" cy="255" opacity=".93"/><circle r=".5" cx="845" cy="299" opacity=".83"/><circle r=".5" cx="829" cy="521" opacity=".59"/><circle r=".5" cx="606" cy="534" opacity=".58"/><circle r=".5" cx="563" cy="312" opacity=".68"/><circle r=".5" cx="779" cy="241" opacity=".43"/><circle r=".5" cx="879" cy="447" opacity=".13"/><circle r=".5" cx="686" cy="575" opacity=".17"/><circle r=".5" cx="533" cy="398" opacity=".49"/><circle r=".5" cx="690" cy="222" opacity=".36"/><circle r=".5" cx="886" cy="355" opacity=".71"/><circle r=".5" cx="779" cy="569" opacity=".81"/><circle r=".5" cx="551" cy="490" opacity=".83"/><circle r=".5" cx="600" cy="252" opacity=".66"/><circle r=".5" cx="845" cy="270" opacity=".29"/><circle r=".5" cx="859" cy="516" opacity=".15"/><circle r=".5" cx="614" cy="563" opacity=".88"/><circle r=".5" cx="536" cy="325" opacity=".56"/><circle r=".5" cx="763" cy="215" opacity=".49"/><circle r=".5" cx="903" cy="428" opacity=".51"/><circle r=".5" cx="708" cy="595" opacity=".72"/><circle r=".5" cx="516" cy="423" opacity=".23"/><circle r=".5" cx="662" cy="208" opacity=".72"/><circle r=".5" cx="896" cy="326" opacity=".98"/><circle r=".5" cx="809" cy="575" opacity=".65"/><circle r=".5" cx="549" cy="521" opacity=".68"/><circle r=".5" cx="569" cy="254" opacity=".29"/><circle r=".5" cx="838" cy="239" opacity=".83"/><circle r=".5" cx="888" cy="506" opacity=".93"/><circle r=".5" cx="629" cy="591" opacity=".12"/><circle r=".5" cx="509" cy="343" opacity=".55"/><circle r=".5" cx="742" cy="191" opacity=".34"/><circle r=".5" cx="923" cy="403" opacity=".82"/><circle r=".5" cx="736" cy="612" opacity=".39"/><circle r=".5" cx="502" cy="453" opacity=".35"/><circle r=".5" cx="631" cy="199" opacity=".29"/><circle r=".5" cx="902" cy="294" opacity=".63"/><circle r=".5" cx="842" cy="576"/><circle r=".5" cx="552" cy="554" opacity=".11"/><circle r=".5" cx="537" cy="262" opacity=".8"/><circle r="1" cx="826" cy="208" opacity=".43"/><circle r="1" cx="918" cy="490" opacity=".6"/><circle r="1" cx="649" cy="618" opacity=".97"/><circle r="1" cx="485" cy="367" opacity=".83"/><circle r="1" cx="715" cy="170" opacity=".13"/><circle r="1" cx="941" cy="374" opacity=".28"/><circle r="1" cx="768" cy="626" opacity=".35"/><circle r="1" cx="493" cy="486" opacity=".78"/><circle r="1" cx="597" cy="194" opacity=".51"/><circle r="1" cx="901" cy="259" opacity=".73"/><circle r="1" cx="877" cy="571" opacity=".18"/><circle r="1" cx="562" cy="588" opacity=".52"/><circle r="1" cx="504" cy="276" opacity=".28"/><circle r="1" cx="808" cy="177" opacity=".68"/><circle r="1" cx="946" cy="467" opacity=".25"/><circle r="1" cx="675" cy="643" opacity=".87"/><circle r="1" cx="464" cy="396" opacity=".92"/><circle r="1" cx="683" cy="153" opacity=".99"/><circle r="1" cx="953" cy="340" opacity=".73"/><circle r="1" cx="803" cy="634" opacity=".12"/><circle r="1" cx="490" cy="522" opacity=".67"/><circle r="1" cx="560" cy="196" opacity=".84"/><circle r="1" cx="895" cy="223" opacity=".74"/><circle r="1" cx="912" cy="560" opacity=".1"/><circle r="1" cx="578" cy="621" opacity=".26"/><circle r="1" cx="473" cy="296" opacity=".59"/><circle r="1" cx="783" cy="149" opacity=".23"/><circle r="1" cx="971" cy="439" opacity=".98"/><circle r="1" cx="706" cy="664" opacity=".22"/><circle r="1" cx="447" cy="430" opacity=".46"/><circle r="1" cx="647" cy="141" opacity=".15"/><circle r="1" cx="961" cy="302" opacity=".37"/><circle r="1" cx="842" cy="636" opacity=".68"/><circle r="1" cx="493" cy="561" opacity=".14"/><circle r="1" cx="522" cy="203" opacity=".14"/><circle r="1" cx="882" cy="186" opacity=".51"/><circle r="1" cx="947" cy="542" opacity=".78"/><circle r="1" cx="600" cy="654" opacity=".13"/><circle r="1" cx="443" cy="323" opacity=".4"/><circle r="1" cx="753" cy="123" opacity=".83"/><circle r="1" cx="992" cy="406" opacity=".22"/><circle r="1" cx="742" cy="681" opacity=".94"/><circle r="1" cx="435" cy="468" opacity=".43"/><circle r="1" cx="607" cy="134" opacity=".95"/><circle r="1" cx="963" cy="261" opacity=".39"/><circle r="1" cx="882" cy="633" opacity=".61"/><circle r="1" cx="502" cy="601" opacity=".97"/><circle r="1" cx="483" cy="218" opacity=".55"/><circle r="1" cx="863" cy="149" opacity=".65"/><circle r="1" cx="981" cy="518" opacity=".25"/><circle r="1" cx="628" cy="684" opacity=".78"/><circle r="1" cx="417" cy="355" opacity=".12"/><circle r="1" cx="717" cy="101" opacity=".16"/><circle r="1" cx="1009" cy="367" opacity=".39"/><circle r="1" cx="783" cy="693" opacity=".17"/><circle r="1" cx="429" cy="510" opacity=".32"/><circle r="1" cx="564" cy="133" opacity=".57"/><circle r="1" cx="958" cy="219" opacity=".6"/><circle r="1" cx="924" cy="622" opacity=".66"/><circle r="1" cx="518" cy="641" opacity=".55"/><circle r="1" cx="446" cy="239" opacity=".65"/><circle r="1" cx="837" cy="115" opacity=".24"/><circle r="1" cx="1012" cy="488" opacity=".98"/><circle r="1" cx="663" cy="711" opacity=".8"/><circle r="1" cx="395" cy="393" opacity=".46"/><circle r="1" cx="677" cy="84" opacity=".11"/><circle r="1" cx="1021" cy="324" opacity=".44"/><circle r="1" cx="827" cy="699" opacity=".5"/><circle r="1" cx="429" cy="555" opacity=".69"/><circle r="1" cx="520" cy="139" opacity=".86"/><circle r="1" cx="946" cy="176" opacity=".86"/><circle r="1" cx="965" cy="604" opacity=".91"/><circle r="1" cx="541" cy="680" opacity=".76"/><circle r="1" cx="410" cy="267" opacity=".22"/><circle r="1" cx="804" cy="83" opacity=".4"/><circle r="1" cx="1039" cy="451" opacity=".59"/><circle r="1" cx="703" cy="733" opacity=".83"/><circle r="1" cx="378" cy="436" opacity=".23"/><circle r="1" cx="632" cy="73" opacity=".7"/><circle r="1" cx="1026" cy="278" opacity=".16"/><circle r="1" cx="873" cy="698" opacity=".6"/><circle r="1" cx="436" cy="601" opacity=".35"/><circle r="1" cx="475" cy="152" opacity=".19"/><circle r="1" cx="927" cy="133" opacity=".85"/><circle r="1" cx="1005" cy="580" opacity=".91"/><circle r="1" cx="571" cy="717" opacity=".13"/><circle r="1" cx="377" cy="302" opacity=".24"/><circle r="1" cx="765" cy="55" opacity=".29"/><circle r="1" cx="1061" cy="409" opacity=".4"/><circle r="1" cx="748" cy="750" opacity=".87"/><circle r="1" cx="367" cy="483" opacity=".21"/><circle r="1" cx="583" cy="69" opacity=".16"/><circle r="1" cx="1024" cy="230" opacity=".73"/><circle r="1" cx="922" cy="689" opacity=".21"/><circle r="1" cx="451" cy="647" opacity=".93"/><circle r="1" cx="431" cy="173" opacity=".86"/><circle r="1" cx="900" cy="91" opacity=".44"/><circle r="1" cx="1043" cy="548" opacity=".83"/><circle r="1" cx="607" cy="750" opacity=".27"/><circle r="1" cx="349" cy="343" opacity=".16"/><circle r="1" cx="721" cy="32" opacity=".66"/><circle r="1" cx="1078" cy="361" opacity=".85"/><circle r="1" cx="798" cy="761" opacity=".66"/><circle r="1" cx="363" cy="533" opacity=".72"/><circle r="1" cx="533" cy="72" opacity=".68"/><circle r="1" cx="1015" cy="180" opacity=".98"/><circle r="1" cx="970" cy="673" opacity=".16"/><circle r="1" cx="473" cy="694" opacity=".5"/><circle r="1" cx="388" cy="202" opacity=".45"/><circle r="1" cx="866" cy="52" opacity=".16"/><circle r="1" cx="1077" cy="509" opacity=".51"/><circle r="1" cx="651" cy="779" opacity=".49"/><circle r="1" cx="326" cy="389" opacity=".4"/><circle r="1" cx="671" cy="15" opacity=".21"/><circle r="1" cx="1088" cy="310" opacity=".17"/><circle r="1" cx="850" cy="764" opacity=".82"/><circle r="1.5" cx="367" cy="586" opacity=".25"/><circle r="1.5" cx="481" cy="82" opacity=".22"/><circle r="1.5" cx="997" cy="129" opacity=".42"/><circle r="1.5" cx="1018" cy="649" opacity=".98"/><circle r="1.5" cx="503" cy="738" opacity=".26"/><circle r="1.5" cx="348" cy="237" opacity=".78"/><circle r="1.5" cx="825" cy="17" opacity=".72"/><circle r="1.5" cx="1107" cy="464" opacity=".67"/><circle r="1.5" cx="700" cy="802" opacity=".23"/><circle r="1.5" cx="309" cy="441" opacity=".86"/><circle r="1.5" cx="617" cy="6" opacity=".39"/><circle r="1.5" cx="1091" cy="255" opacity=".35"/><circle r="1.5" cx="905" cy="759" opacity=".17"/><circle r="1.5" cx="379" cy="640" opacity=".55"/><circle r="1.5" cx="429" cy="101" opacity=".34"/><circle r="1.5" cx="972" cy="80" opacity=".75"/><circle r="1.5" cx="1063" cy="617" opacity=".34"/><circle r="1.5" cx="541" cy="779" opacity=".39"/><circle r="1.5" cx="312" cy="280" opacity=".21"/><circle r="1.5" cx="778" cy="-13" opacity=".66"/><circle r="1.5" cx="1131" cy="412" opacity=".84"/><circle r="1.5" cx="753" cy="819" opacity=".92"/><circle r="1.5" cx="300" cy="497" opacity=".59"/><circle r="1.5" cx="561" cy="4" opacity=".61"/><circle r="1.5" cx="1086" cy="198" opacity=".99"/><circle r="1.5" cx="961" cy="746" opacity=".35"/><circle r="1.5" cx="399" cy="694" opacity=".97"/><circle r="1.5" cx="378" cy="128" opacity=".24"/><circle r="1.5" cx="938" cy="33" opacity=".96"/><circle r="1.5" cx="1105" cy="578" opacity=".11"/><circle r="1.5" cx="586" cy="816" opacity=".78"/><circle r="1.5" cx="281" cy="330" opacity=".99"/><circle r="1.5" cx="725" cy="-37" opacity=".62"/><circle r="1.5" cx="1147" cy="356" opacity=".13"/><circle r="1.5" cx="812" cy="828" opacity=".7"/><circle r="1.5" cx="298" cy="556" opacity=".37"/><circle r="1.5" cx="502" cy="10" opacity=".44"/><circle r="1.5" cx="1072" cy="141" opacity=".73"/><circle r="1.5" cx="1016" cy="725"/><circle r="1.5" cx="428" cy="746" opacity=".75"/><circle r="1.5" cx="330" cy="163" opacity=".44"/><circle r="1.5" cx="896" cy="-10" opacity=".51"/><circle r="1.5" cx="1143" cy="531" opacity=".23"/><circle r="1.5" cx="637" cy="847" opacity=".67"/><circle r="1.5" cx="257" cy="385" opacity=".57"/><circle r="1.5" cx="666" cy="-54" opacity=".71"/><circle r="1.5" cx="1156" cy="296" opacity=".21"/><circle r="1.5" cx="873" cy="829" opacity=".62"/><circle r="1.5" cx="305" cy="617" opacity=".76"/><circle r="1.5" cx="442" cy="25" opacity=".94"/><circle r="1.5" cx="1049" cy="84" opacity=".84"/><circle r="1.5" cx="1070" cy="695" opacity=".22"/><circle r="1.5" cx="465" cy="795" opacity=".4"/><circle r="1.5" cx="285" cy="207" opacity=".82"/><circle r="1.5" cx="847" cy="-48" opacity=".87"/><circle r="1.5" cx="1175" cy="477" opacity=".34"/><circle r="1.5" cx="695" cy="871" opacity=".94"/><circle r="1.5" cx="240" cy="446" opacity=".75"/><circle r="1.5" cx="604" cy="-62" opacity=".38"/><circle r="1.5" cx="1157" cy="233" opacity=".61"/><circle r="1.5" cx="936" cy="821" opacity=".88"/><circle r="1.5" cx="321" cy="678" opacity=".99"/><circle r="1.5" cx="383" cy="49" opacity=".85"/><circle r="1.5" cx="1017" cy="28" opacity=".25"/><circle r="1.5" cx="1121" cy="656" opacity=".21"/><circle r="1.5" cx="510" cy="841" opacity=".81"/><circle r="1.5" cx="246" cy="258" opacity=".1"/><circle r="1.5" cx="791" cy="-81" opacity=".74"/><circle r="1.5" cx="1200" cy="417" opacity=".52"/><circle r="1.5" cx="758" cy="888" opacity=".41"/><circle r="1.5" cx="232" cy="511" opacity=".69"/><circle r="1.5" cx="538" cy="-62" opacity=".87"/><circle r="1.5" cx="1148" cy="168" opacity=".33"/><circle r="1.5" cx="999" cy="804" opacity=".29"/><circle r="1.5" cx="347" cy="739" opacity=".12"/><circle r="1.5" cx="326" cy="82" opacity=".98"/><circle r="1.5" cx="976" cy="-24" opacity=".88"/><circle r="1.5" cx="1167" cy="608" opacity=".19"/><circle r="1.5" cx="563" cy="881" opacity=".5"/><circle r="1.5" cx="213" cy="316" opacity=".27"/><circle r="1.5" cx="729" cy="-106" opacity=".45"/><circle r="1.5" cx="1216" cy="352" opacity=".76"/><circle r="1.5" cx="825" cy="896" opacity=".56"/><circle r="1.5" cx="233" cy="578" opacity=".68"/><circle r="1.5" cx="471" cy="-52" opacity=".42"/><circle r="1.5" cx="1129" cy="103" opacity=".47"/><circle r="1.5" cx="1061" cy="777" opacity=".33"/><circle r="1.5" cx="382" cy="798" opacity=".71"/><circle r="1.5" cx="273" cy="125" opacity=".6"/><circle r="1.5" cx="927" cy="-72" opacity=".66"/><circle r="1.5" cx="1208" cy="553" opacity=".8"/><circle r="1.5" cx="624" cy="915" opacity=".9"/><circle r="1.5" cx="188" cy="381" opacity=".38"/><circle r="1.5" cx="662" cy="-123" opacity=".95"/><circle r="1.5" cx="1224" cy="283" opacity=".9"/><circle r="1.5" cx="895" cy="895" opacity=".19"/><circle r="1.5" cx="243" cy="647" opacity=".16"/><circle r="1.5" cx="404" cy="-33" opacity=".43"/><circle r="1.5" cx="1101" cy="38" opacity=".79"/><circle r="1.5" cx="1122" cy="741" opacity=".87"/><circle r="1.5" cx="426" cy="853" opacity=".62"/><circle r="1.5" cx="224" cy="176" opacity=".24"/><circle r="1.5" cx="870" cy="-114" opacity=".67"/><circle r="1.5" cx="1243" cy="491" opacity=".73"/><circle r="1.5" cx="690" cy="940" opacity=".16"/><circle r="1.5" cx="171" cy="450" opacity=".65"/><circle r="1.5" cx="591" cy="-130" opacity=".78"/><circle r="1.5" cx="1222" cy="211" opacity=".96"/><circle r="1.5" cx="966" cy="883" opacity=".83"/><circle r="1.5" cx="264" cy="716" opacity=".46"/><circle r="1.5" cx="338" cy="-3" opacity=".66"/><circle r="1.5" cx="1063" cy="-23" opacity=".33"/><circle r="1.5" cx="1178" cy="695" opacity=".54"/><circle r="1.5" cx="479" cy="903" opacity=".4"/><circle r="1.5" cx="181" cy="235" opacity=".97"/><circle r="1.5" cx="805" cy="-148" opacity=".51"/><circle r="2" cx="1269" cy="422" opacity=".3"/><circle r="2" cx="762" cy="957" opacity=".7"/><circle r="2" cx="164" cy="523" opacity=".58"/><circle r="2" cx="517" cy="-128" opacity=".13"/><circle r="2" cx="1210" cy="138" opacity=".67"/><circle r="2" cx="1037" cy="862" opacity=".32"/><circle r="2" cx="295" cy="784" opacity=".82"/><circle r="2" cx="275" cy="36" opacity=".91"/><circle r="2" cx="1015" cy="-81" opacity=".47"/><circle r="2" cx="1229" cy="640" opacity=".14"/><circle r="2" cx="540" cy="946" opacity=".66"/><circle r="2" cx="146" cy="302" opacity=".99"/><circle r="2" cx="735" cy="-175" opacity=".29"/><circle r="2" cx="1285" cy="348" opacity=".94"/><circle r="2" cx="838" cy="964" opacity=".43"/><circle r="2" cx="167" cy="600" opacity=".62"/><circle r="2" cx="442" cy="-115" opacity=".69"/><circle r="2" cx="1187" cy="65" opacity=".73"/><circle r="2" cx="1106" cy="830" opacity=".15"/><circle r="2" cx="336" cy="849" opacity=".41"/><circle r="2" cx="216" cy="86" opacity=".11"/><circle r="2" cx="959" cy="-134" opacity=".27"/><circle r="2" cx="1274" cy="576" opacity=".32"/><circle r="2" cx="609" cy="982" opacity=".14"/><circle r="2" cx="119" cy="375" opacity=".69"/><circle r="2" cx="658" cy="-192" opacity=".82"/><circle r="2" cx="1292" cy="270" opacity=".27"/><circle r="2" cx="916" cy="961" opacity=".64"/><circle r="2" cx="181" cy="677" opacity=".92"/><circle r="2" cx="367" cy="-91" opacity=".2"/><circle r="2" cx="1154" cy="-7" opacity=".5"/><circle r="2" cx="1173" cy="787" opacity=".98"/><circle r="2" cx="387" cy="910" opacity=".62"/><circle r="2" cx="162" cy="144" opacity=".67"/><circle r="2" cx="893" cy="-179" opacity=".93"/><circle r="2" cx="1310" cy="505" opacity=".67"/><circle r="2" cx="685" cy="1009" opacity=".19"/><circle r="2" cx="102" cy="453" opacity=".31"/><circle r="2" cx="578" cy="-198" opacity=".71"/><circle r="2" cx="1288" cy="190" opacity=".76"/><circle r="2" cx="995" cy="946" opacity=".62"/><circle r="2" cx="205" cy="754" opacity=".66"/><circle r="2" cx="293" cy="-56" opacity=".8"/><circle r="2" cx="1110" cy="-75" opacity=".64"/><circle r="2" cx="1235" cy="734" opacity=".44"/><circle r="2" cx="447" cy="964" opacity=".41"/><circle r="2" cx="116" cy="212" opacity=".32"/><circle r="2" cx="820" cy="-216" opacity=".63"/><circle r="2" cx="1337" cy="428" opacity=".21"/><circle r="2" cx="765" cy="1026" opacity=".42"/><circle r="2" cx="96" cy="536" opacity=".88"/><circle r="2" cx="496" cy="-194" opacity=".16"/><circle r="2" cx="1273" cy="109" opacity=".9"/><circle r="2" cx="1074" cy="920" opacity=".46"/><circle r="2" cx="242" cy="829" opacity=".82"/><circle r="2" cx="224" cy="-10" opacity=".53"/><circle r="2" cx="1055" cy="-138" opacity=".38"/><circle r="2" cx="1291" cy="672" opacity=".5"/><circle r="2" cx="517" cy="1011" opacity=".6"/><circle r="2" cx="78" cy="287" opacity=".92"/><circle r="2" cx="741" cy="-244" opacity=".76"/><circle r="2" cx="1354" cy="345" opacity=".57"/><circle r="2" cx="850" cy="1032"/><circle r="2" cx="101" cy="620" opacity=".61"/><circle r="2" cx="412" cy="-177" opacity=".45"/><circle r="2" cx="1246" cy="28" opacity=".75"/><circle r="2" cx="1151" cy="883" opacity=".62"/><circle r="2" cx="289" cy="900" opacity=".39"/><circle r="2" cx="159" cy="46" opacity=".86"/><circle r="2" cx="991" cy="-195" opacity=".64"/><circle r="2" cx="1339" cy="600" opacity=".12"/><circle r="2" cx="594" cy="1050" opacity=".86"/><circle r="2" cx="50" cy="369" opacity=".77"/><circle r="2" cx="656" cy="-261" opacity=".79"/><circle r="2" cx="1360" cy="259" opacity=".69"/><circle r="2" cx="936" cy="1027" opacity=".39"/><circle r="2" cx="118" cy="706" opacity=".41"/><circle r="2" cx="330" cy="-149" opacity=".81"/><circle r="2" cx="1207" cy="-51" opacity=".55"/><circle r="2" cx="1224" cy="834" opacity=".63"/><circle r="2" cx="347" cy="966" opacity=".97"/><circle r="2" cx="101" cy="112" opacity=".89"/><circle r="2" cx="917" cy="-244" opacity=".25"/><circle r="2" cx="1378" cy="521" opacity=".46"/><circle r="2" cx="678" cy="1078" opacity=".77"/><circle r="2" cx="33" cy="456" opacity=".52"/><circle r="2" cx="567" cy="-266" opacity=".48"/><circle r="2" cx="1354" cy="170" opacity=".45"/><circle r="2" cx="1024" cy="1009" opacity=".85"/><circle r="2" cx="147" cy="791" opacity=".11"/><circle r="2" cx="249" cy="-109" opacity=".92"/><circle r="2" cx="1157" cy="-125" opacity=".71"/><circle r="2" cx="1291" cy="774" opacity=".64"/><circle r="2" cx="415" cy="1025" opacity=".3"/><circle r="2" cx="51" cy="188" opacity=".9"/><circle r="2" cx="836" cy="-283"/><circle r="2" cx="1406" cy="435" opacity=".63"/><circle r="2" cx="768" cy="1095" opacity=".28"/><circle r="2" cx="28" cy="547" opacity=".52"/><circle r="2" cx="476" cy="-260" opacity=".43"/><circle r="2" cx="1336" cy="80" opacity=".99"/><circle r="2" cx="1111" cy="979" opacity=".92"/><circle r="2" cx="188" cy="873" opacity=".5"/><circle r="2" cx="173" cy="-58" opacity=".76"/><circle r="2" cx="1095" cy="-194" opacity=".96"/><circle r="2" cx="1352" cy="704" opacity=".63"/><circle r="2" cx="493" cy="1076"/><circle r="2" cx="11" cy="271" opacity=".15"/><circle r="2" cx="747" cy="-313" opacity=".24"/><circle r="2" cx="1424" cy="343" opacity=".46"/><circle r="2" cx="861" cy="1101" opacity=".59"/><circle r="2" cx="35" cy="640" opacity=".94"/><circle r="2" cx="384" cy="-240" opacity=".33"/><circle r="2" cx="1305" cy="-9" opacity=".29"/><circle r="2" cx="1195" cy="936" opacity=".49"/><circle r="2" cx="242" cy="951" opacity=".46"/><circle r="2" cx="103" cy="6" opacity=".42"/><circle r="2.5" cx="1023" cy="-256" opacity=".81"/><circle r="2.5" cx="1403" cy="625" opacity=".33"/><circle r="2.5" cx="578" cy="1117" opacity=".55"/><circle r="2.5" cx="-19" cy="362" opacity=".28"/><circle r="2.5" cx="653" cy="-330" opacity=".88"/><circle r="2.5" cx="1429" cy="247" opacity=".61"/><circle r="2.5" cx="956" cy="1093" opacity=".69"/><circle r="2.5" cx="55" cy="734" opacity=".53"/><circle r="2.5" cx="293" cy="-208" opacity=".98"/><circle r="2.5" cx="1261" cy="-95" opacity=".6"/><circle r="2.5" cx="1274" cy="881" opacity=".87"/><circle r="2.5" cx="306" cy="1022" opacity=".42"/><circle r="2.5" cx="40" cy="79" opacity=".41"/><circle r="2.5" cx="942" cy="-309" opacity=".14"/><circle r="2.5" cx="1445" cy="537" opacity=".58"/><circle r="2.5" cx="671" cy="1147" opacity=".43"/><circle r="2.5" cx="-36" cy="458" opacity=".28"/><circle r="2.5" cx="556" cy="-335" opacity=".33"/><circle r="2.5" cx="1421" cy="150" opacity=".45"/><circle r="2.5" cx="1052" cy="1072" opacity=".5"/><circle r="2.5" cx="88" cy="827" opacity=".75"/><circle r="2.5" cx="206" cy="-163" opacity=".28"/><circle r="2.5" cx="1204" cy="-176" opacity=".15"/><circle r="2.5" cx="1347" cy="815" opacity=".4"/><circle r="2.5" cx="382" cy="1086" opacity=".37"/><circle r="2.5" cx="-14" cy="163" opacity=".49"/><circle r="2.5" cx="852" cy="-351" opacity=".3"/><circle r="2.5" cx="1475" cy="442" opacity=".92"/><circle r="2.5" cx="769" cy="1165" opacity=".29"/><circle r="2.5" cx="-41" cy="558" opacity=".95"/><circle r="2.5" cx="456" cy="-326" opacity=".17"/><circle r="2.5" cx="1399" cy="52" opacity=".16"/><circle r="2.5" cx="1147" cy="1038" opacity=".79"/><circle r="2.5" cx="134" cy="916" opacity=".83"/><circle r="2.5" cx="123" cy="-105" opacity=".45"/><circle r="2.5" cx="1136" cy="-250" opacity=".4"/><circle r="2.5" cx="1412" cy="737" opacity=".56"/><circle r="2.5" cx="468" cy="1141" opacity=".88"/><circle r="2.5" cx="-57" cy="255" opacity=".29"/><circle r="2.5" cx="755" cy="-381" opacity=".42"/><circle r="2.5" cx="1493" cy="341" opacity=".86"/><circle r="2.5" cx="871" cy="1169" opacity=".2"/><circle r="2.5" cx="-32" cy="660"/><circle r="2.5" cx="356" cy="-304" opacity=".76"/><circle r="2.5" cx="1364" cy="-45" opacity=".57"/><circle r="2.5" cx="1238" cy="990" opacity=".45"/><circle r="2.5" cx="194" cy="1001" opacity=".5"/><circle r="2.5" cx="47" cy="-35" opacity=".16"/><circle r="2.5" cx="1057" cy="-317" opacity=".1"/><circle r="2.5" cx="1468" cy="650" opacity=".36"/><circle r="2.5" cx="562" cy="1184" opacity=".94"/><circle r="2.5" cx="-88" cy="354" opacity=".59"/><circle r="2.5" cx="652" cy="-399" opacity=".32"/><circle r="2.5" cx="1497" cy="237"/><circle r="2.5" cx="976" cy="1159" opacity=".51"/><circle r="2.5" cx="-9" cy="762" opacity=".81"/><circle r="2.5" cx="257" cy="-268" opacity=".23"/><circle r="2.5" cx="1315" cy="-138" opacity=".12"/><circle r="2.5" cx="1324" cy="929" opacity=".78"/><circle r="2.5" cx="265" cy="1078" opacity=".54"/><circle r="2.5" cx="-21" cy="46" opacity=".67"/><circle r="2.5" cx="967" cy="-373" opacity=".63"/><circle r="2.5" cx="1512" cy="553" opacity=".59"/><circle r="2.5" cx="663" cy="1216" opacity=".17"/><circle r="2.5" cx="-105" cy="459" opacity=".76"/><circle r="2.5" cx="545" cy="-403" opacity=".33"/><circle r="2.5" cx="1487" cy="131" opacity=".84"/><circle r="2.5" cx="1080" cy="1136" opacity=".63"/><circle r="2.5" cx="29" cy="863" opacity=".4"/><circle r="2.5" cx="162" cy="-217" opacity=".82"/><circle r="2.5" cx="1252" cy="-225" opacity=".88"/><circle r="2.5" cx="1403" cy="856" opacity=".31"/><circle r="2.5" cx="348" cy="1147" opacity=".92"/><circle r="2.5" cx="-78" cy="138" opacity=".7"/><circle r="2.5" cx="869" cy="-418" opacity=".54"/><circle r="2.5" cx="1544" cy="450" opacity=".94"/><circle r="2.5" cx="771" cy="1234" opacity=".46"/><circle r="2.5" cx="-109" cy="568" opacity=".45"/><circle r="2.5" cx="437" cy="-393" opacity=".63"/><circle r="2.5" cx="1462" cy="24" opacity=".2"/><circle r="2.5" cx="1182" cy="1097" opacity=".31"/><circle r="2.5" cx="80" cy="959" opacity=".42"/><circle r="2.5" cx="73" cy="-154" opacity=".34"/><circle r="2.5" cx="1177" cy="-306" opacity=".7"/><circle r="2.5" cx="1473" cy="771" opacity=".79"/><circle r="2.5" cx="442" cy="1205" opacity=".45"/><circle r="2.5" cx="-124" cy="238" opacity=".34"/><circle r="2.5" cx="763" cy="-450" opacity=".57"/><circle r="2.5" cx="1562" cy="340" opacity=".65"/><circle r="2.5" cx="881" cy="1237" opacity=".38"/><circle r="2.5" cx="-98" cy="679" opacity=".14"/><circle r="2.5" cx="328" cy="-367" opacity=".44"/><circle r="2.5" cx="1423" cy="-80" opacity=".73"/><circle r="2.5" cx="1281" cy="1045" opacity=".31"/><circle r="2.5" cx="145" cy="1050" opacity=".34"/><circle r="2.5" cx="-9" cy="-77" opacity=".44"/><circle r="2.5" cx="1091" cy="-377" opacity=".72"/><circle r="2.5" cx="1532" cy="675" opacity=".72"/><circle r="2.5" cx="545" cy="1251" opacity=".63"/><circle r="2.5" cx="-156" cy="346" opacity=".15"/><circle r="2.5" cx="651" cy="-468" opacity=".65"/><circle r="2.5" cx="1566" cy="227" opacity=".83"/><circle r="2.5" cx="994" cy="1226" opacity=".24"/><circle r="2.5" cx="-72" cy="789" opacity=".88"/><circle r="2.5" cx="222" cy="-327" opacity=".71"/><circle r="2.5" cx="1369" cy="-181" opacity=".91"/><circle r="2.5" cx="1373" cy="978" opacity=".43"/><circle r="2.5" cx="224" cy="1133" opacity=".16"/><circle r="2.5" cx="-81" cy="12" opacity=".84"/><circle r="2.5" cx="993" cy="-437" opacity=".39"/><circle r="2.5" cx="1579" cy="571" opacity=".98"/><circle r="2.5" cx="655" cy="1285" opacity=".29"/><circle r="2.5" cx="-175" cy="460" opacity=".54"/><circle r="2.5" cx="536" cy="-472" opacity=".87"/><circle r="2.5" cx="1554" cy="112" opacity=".82"/><circle r="2.5" cx="1107" cy="1199" opacity=".26"/><circle r="3" cx="-31" cy="898" opacity=".38"/><circle r="3" cx="120" cy="-272" opacity=".96"/><circle r="3" cx="1301" cy="-275" opacity=".71"/><circle r="3" cx="1458" cy="898" opacity=".72"/><circle r="3" cx="314" cy="1207" opacity=".94"/><circle r="3" cx="-142" cy="111" opacity=".46"/><circle r="3" cx="886" cy="-485" opacity=".19"/><circle r="3" cx="1613" cy="458" opacity=".53"/><circle r="3" cx="771" cy="1303" opacity=".6"/><circle r="3" cx="-178" cy="577" opacity=".33"/><circle r="3" cx="419" cy="-460" opacity=".89"/><circle r="3" cx="1526" cy="-3" opacity=".73"/><circle r="3" cx="1217" cy="1157" opacity=".65"/><circle r="3" cx="25" cy="1002" opacity=".36"/><circle r="3" cx="24" cy="-202" opacity=".32"/><circle r="3" cx="1219" cy="-361" opacity=".54"/><circle r="3" cx="1533" cy="805" opacity=".1"/><circle r="3" cx="416" cy="1269" opacity=".69"/><circle r="3" cx="-191" cy="220" opacity=".68"/><circle r="3" cx="771" cy="-519" opacity=".43"/><circle r="3" cx="1631" cy="340" opacity=".74"/><circle r="3" cx="891" cy="1306" opacity=".24"/><circle r="3" cx="-165" cy="697" opacity=".5"/><circle r="3" cx="302" cy="-431" opacity=".23"/><circle r="3" cx="1483" cy="-115" opacity=".25"/><circle r="3" cx="1323" cy="1099" opacity=".46"/><circle r="3" cx="96" cy="1099" opacity=".23"/><circle r="3" cx="-64" cy="-119" opacity=".64"/><circle r="3" cx="1125" cy="-437" opacity=".17"/><circle r="3" cx="1596" cy="702" opacity=".59"/><circle r="3" cx="527" cy="1318" opacity=".14"/><circle r="3" cx="-225" cy="337" opacity=".46"/><circle r="3" cx="651" cy="-538" opacity=".75"/><circle r="3" cx="1634" cy="218" opacity=".39"/><circle r="3" cx="1012" cy="1293" opacity=".89"/><circle r="3" cx="-136" cy="816" opacity=".13"/><circle r="3" cx="187" cy="-387" opacity=".26"/><circle r="3" cx="1424" cy="-223" opacity=".57"/><circle r="3" cx="1422" cy="1027" opacity=".88"/><circle r="3" cx="182" cy="1188" opacity=".25"/><circle r="3" cx="-141" cy="-23" opacity=".27"/><circle r="3" cx="1019" cy="-501" opacity=".42"/><circle r="3" cx="1646" cy="589" opacity=".34"/><circle r="3" cx="646" cy="1353" opacity=".72"/><circle r="3" cx="-244" cy="460" opacity=".63"/><circle r="3" cx="527" cy="-540" opacity=".36"/><circle r="3" cx="1621" cy="94" opacity=".11"/><circle r="3" cx="1133" cy="1263" opacity=".71"/><circle r="3" cx="-91" cy="932" opacity=".81"/><circle r="3" cx="78" cy="-327" opacity=".96"/><circle r="3" cx="1350" cy="-324" opacity=".72"/><circle r="3" cx="1513" cy="940" opacity=".33"/><circle r="3" cx="279" cy="1267" opacity=".36"/><circle r="3" cx="-206" cy="85" opacity=".55"/><circle r="3" cx="904" cy="-552" opacity=".39"/><circle r="3" cx="1681" cy="468" opacity=".17"/><circle r="3" cx="771" cy="1372" opacity=".35"/><circle r="3" cx="-247" cy="586" opacity=".8"/><circle r="3" cx="401" cy="-526" opacity=".26"/><circle r="3" cx="1590" cy="-29" opacity=".22"/><circle r="3" cx="1252" cy="1217" opacity=".26"/><circle r="3" cx="-30" cy="1044" opacity=".35"/><circle r="3" cx="-25" cy="-251" opacity=".57"/><circle r="3" cx="1262" cy="-416" opacity=".9"/><circle r="3" cx="1593" cy="840" opacity=".12"/><circle r="3" cx="389" cy="1333" opacity=".51"/><circle r="3" cx="-258" cy="202" opacity=".14"/><circle r="3" cx="781" cy="-587" opacity=".35"/><circle r="3" cx="1701" cy="340" opacity=".42"/><circle r="3" cx="899" cy="1375" opacity=".36"/><circle r="3" cx="-232" cy="714" opacity=".61"/><circle r="3" cx="276" cy="-496" opacity=".48"/><circle r="3" cx="1543" cy="-149" opacity=".64"/><circle r="3" cx="1365" cy="1155" opacity=".53"/><circle r="3" cx="47" cy="1148" opacity=".4"/><circle r="3" cx="-118" cy="-161" opacity=".58"/><circle r="3" cx="1160" cy="-497" opacity=".47"/><circle r="3" cx="1660" cy="729"/><circle r="3" cx="508" cy="1385" opacity=".29"/><circle r="3" cx="-294" cy="328" opacity=".83"/><circle r="3" cx="652" cy="-607" opacity=".17"/><circle r="3" cx="1703" cy="210" opacity=".11"/><circle r="3" cx="1030" cy="1360" opacity=".69"/><circle r="3" cx="-201" cy="842" opacity=".37"/><circle r="3" cx="153" cy="-447" opacity=".17"/><circle r="3" cx="1480" cy="-264" opacity=".38"/><circle r="3" cx="1471" cy="1076" opacity=".52"/><circle r="3" cx="139" cy="1243" opacity=".76"/><circle r="3" cx="-201" cy="-58" opacity=".63"/><circle r="3" cx="1047" cy="-565" opacity=".43"/><circle r="3" cx="1713" cy="607" opacity=".92"/><circle r="3" cx="636" cy="1422" opacity=".97"/><circle r="3" cx="-313" cy="459" opacity=".41"/><circle r="3" cx="519" cy="-609" opacity=".38"/><circle r="3" cx="1688" cy="77" opacity=".86"/><circle r="3" cx="1159" cy="1328" opacity=".56"/><circle r="3" cx="-152" cy="966" opacity=".34"/><circle r="3" cx="36" cy="-382" opacity=".63"/><circle r="3" cx="1400" cy="-372" opacity=".74"/><circle r="3" cx="1567" cy="983" opacity=".12"/><circle r="3" cx="244" cy="1326" opacity=".94"/><circle r="3" cx="-270" cy="57" opacity=".71"/><circle r="3" cx="923" cy="-619" opacity=".86"/><circle r="3" cx="1750" cy="477" opacity=".78"/><circle r="3" cx="770" cy="1442" opacity=".5"/><circle r="3" cx="-315" cy="594" opacity=".7"/><circle r="3" cx="384" cy="-594" opacity=".77"/><circle r="3" cx="1655" cy="-54" opacity=".3"/><circle r="3" cx="1285" cy="1278" opacity=".62"/><circle r="3" cx="-85" cy="1085" opacity=".61"/><circle r="3" cx="-73" cy="-301" opacity=".31"/><circle r="3" cx="1305" cy="-470" opacity=".14"/><circle r="3" cx="1652" cy="876" opacity=".61"/><circle r="3" cx="362" cy="1397" opacity=".15"/><circle r="3" cx="-324" cy="183" opacity=".55"/><circle r="3" cx="791" cy="-656" opacity=".95"/><circle r="3.5" cx="1770" cy="342" opacity=".64"/><circle r="3.5" cx="907" cy="1444" opacity=".95"/><circle r="3.5" cx="-300" cy="731" opacity=".85"/><circle r="3.5" cx="250" cy="-560" opacity=".52"/><circle r="3.5" cx="1604" cy="-183" opacity=".99"/><circle r="3.5" cx="1406" cy="1210" opacity=".14"/><circle r="3.5" cx="-3" cy="1196" opacity=".67"/><circle r="3.5" cx="-173" cy="-205" opacity=".35"/><circle r="3.5" cx="1196" cy="-556" opacity=".86"/><circle r="3.5" cx="1724" cy="756" opacity=".18"/><circle r="3.5" cx="489" cy="1452" opacity=".74"/><circle r="3.5" cx="-362" cy="317" opacity=".91"/><circle r="3.5" cx="653" cy="-676" opacity=".18"/><circle r="3.5" cx="1772" cy="202" opacity=".31"/><circle r="3.5" cx="1046" cy="1427" opacity=".51"/><circle r="3.5" cx="-265" cy="867" opacity=".21"/><circle r="3.5" cx="120" cy="-508" opacity=".58"/><circle r="3.5" cx="1535" cy="-305" opacity=".31"/><circle r="3.5" cx="1519" cy="1126" opacity=".85"/><circle r="3.5" cx="96" cy="1297" opacity=".73"/><circle r="3.5" cx="-260" cy="-94" opacity=".77"/><circle r="3.5" cx="1074" cy="-628" opacity=".67"/><circle r="3.5" cx="1779" cy="627" opacity=".63"/><circle r="3.5" cx="626" cy="1490" opacity=".76"/><circle r="3.5" cx="-383" cy="458" opacity=".17"/><circle r="3.5" cx="511" cy="-678" opacity=".14"/><circle r="3.5" cx="1755" cy="61" opacity=".17"/><circle r="3.5" cx="1184" cy="1392" opacity=".84"/><circle r="3.5" cx="-212" cy="999" opacity=".64"/><circle r="3.5" cx="-5" cy="-438" opacity=".65"/><circle r="3.5" cx="1450" cy="-420" opacity=".24"/><circle r="3.5" cx="1622" cy="1026" opacity=".85"/><circle r="3.5" cx="208" cy="1386" opacity=".9"/><circle r="3.5" cx="-333" cy="29" opacity=".17"/><circle r="3.5" cx="942" cy="-685" opacity=".12"/><circle r="3.5" cx="1818" cy="488" opacity=".71"/><circle r="3.5" cx="768" cy="1511" opacity=".57"/><circle r="3.5" cx="-384" cy="602" opacity=".4"/><circle r="3.5" cx="368" cy="-661" opacity=".82"/><circle r="3.5" cx="1720" cy="-79" opacity=".32"/><circle r="3.5" cx="1319" cy="1339" opacity=".46"/><circle r="3.5" cx="-141" cy="1126" opacity=".82"/><circle r="3.5" cx="-121" cy="-351" opacity=".67"/><circle r="3.5" cx="1348" cy="-524" opacity=".78"/><circle r="3.5" cx="1711" cy="912" opacity=".92"/><circle r="3.5" cx="333" cy="1460" opacity=".44"/><circle r="3.5" cx="-391" cy="164" opacity=".5"/><circle r="3.5" cx="802" cy="-725" opacity=".38"/><circle r="3.5" cx="1839" cy="343" opacity=".56"/><circle r="3.5" cx="915" cy="1513" opacity=".83"/><circle r="3.5" cx="-367" cy="747" opacity=".76"/><circle r="3.5" cx="225" cy="-625" opacity=".54"/><circle r="3.5" cx="1665" cy="-216" opacity=".51"/><circle r="3.5" cx="1447" cy="1266" opacity=".42"/><circle r="3.5" cx="-53" cy="1244" opacity=".79"/><circle r="3.5" cx="-226" cy="-248" opacity=".79"/><circle r="3.5" cx="1232" cy="-615" opacity=".71"/><circle r="3.5" cx="1787" cy="785" opacity=".44"/><circle r="3.5" cx="470" cy="1518" opacity=".38"/><circle r="3.5" cx="-431" cy="306" opacity=".6"/><circle r="3.5" cx="655" cy="-746" opacity=".39"/><circle r="3.5" cx="1841" cy="195"/><circle r="3.5" cx="1062" cy="1495" opacity=".88"/><circle r="3.5" cx="-330" cy="892" opacity=".65"/><circle r="3.5" cx="87" cy="-569" opacity=".33"/><circle r="3.5" cx="1592" cy="-346" opacity=".55"/><circle r="3.5" cx="1567" cy="1177" opacity=".86"/><circle r="3.5" cx="52" cy="1351" opacity=".2"/><circle r="3.5" cx="-319" cy="-130" opacity=".99"/><circle r="3.5" cx="1103" cy="-692" opacity=".51"/><circle r="3.5" cx="1846" cy="647" opacity=".39"/><circle r="3.5" cx="614" cy="1559" opacity=".6"/><circle r="3.5" cx="-452" cy="455"/><circle r="3.5" cx="504" cy="-747" opacity=".53"/><circle r="3.5" cx="1823" cy="45" opacity=".55"/><circle r="3.5" cx="1209" cy="1457" opacity=".33"/><circle r="3.5" cx="-273" cy="1032" opacity=".29"/><circle r="3.5" cx="-45" cy="-495" opacity=".34"/><circle r="3.5" cx="1500" cy="-467" opacity=".71"/><circle r="3.5" cx="1675" cy="1070" opacity=".97"/><circle r="3.5" cx="171" cy="1445" opacity=".3"/><circle r="3.5" cx="-396" cy="1" opacity=".69"/><circle r="3.5" cx="963" cy="-751" opacity=".36"/><circle r="3.5" cx="1887" cy="499" opacity=".36"/><circle r="3.5" cx="766" cy="1580" opacity=".82"/><circle r="3.5" cx="-453" cy="609" opacity=".65"/><circle r="3.5" cx="352" cy="-729" opacity=".96"/><circle r="3.5" cx="1784" cy="-104" opacity=".35"/><circle r="3.5" cx="1351" cy="1400" opacity=".26"/><circle r="3.5" cx="-198" cy="1166" opacity=".19"/><circle r="3.5" cx="-168" cy="-402" opacity=".87"/><circle r="3.5" cx="1392" cy="-577" opacity=".65"/><circle r="3.5" cx="1770" cy="949" opacity=".56"/><circle r="3.5" cx="305" cy="1523" opacity=".51"/><circle r="3.5" cx="-457" cy="143" opacity=".63"/><circle r="3.5" cx="813" cy="-793" opacity=".17"/><circle r="3.5" cx="1909" cy="346" opacity=".92"/><circle r="3.5" cx="921" cy="1582" opacity=".8"/><circle r="3.5" cx="-435" cy="763" opacity=".64"/><circle r="3.5" cx="201" cy="-690" opacity=".63"/><circle r="3.5" cx="1726" cy="-248" opacity=".98"/><circle r="3.5" cx="1487" cy="1323" opacity=".7"/><circle r="3.5" cx="-104" cy="1291" opacity=".58"/><circle r="3.5" cx="-280" cy="-293" opacity=".1"/><circle r="3.5" cx="1269" cy="-674" opacity=".89"/><circle r="3.5" cx="1850" cy="814" opacity=".89"/><circle r="3.5" cx="449" cy="1585" opacity=".27"/><circle r="3.5" cx="-499" cy="295" opacity=".28"/><circle r="3.5" cx="658" cy="-815" opacity=".84"/><circle r="3.5" cx="1910" cy="188" opacity=".96"/><circle r="3.5" cx="1078" cy="1562" opacity=".87"/><circle r="3.5" cx="-395" cy="916" opacity=".58"/><circle r="3.5" cx="55" cy="-631" opacity=".57"/><circle r="3.5" cx="1648" cy="-386" opacity=".32"/><circle r="3.5" cx="1614" cy="1228" opacity=".43"/><circle r="3.5" cx="7" cy="1404" opacity=".94"/><circle r="3.5" cx="-378" cy="-167" opacity=".97"/><circle r="4" cx="1132" cy="-755" opacity=".89"/><circle r="4" cx="1912" cy="667" opacity=".73"/><circle r="4" cx="603" cy="1627" opacity=".55"/><circle r="4" cx="-521" cy="453" opacity=".86"/><circle r="4" cx="498" cy="-816" opacity=".85"/><circle r="4" cx="1890" cy="30" opacity=".83"/><circle r="4" cx="1233" cy="1522" opacity=".39"/><circle r="4" cx="-335" cy="1064" opacity=".52"/><circle r="4" cx="-85" cy="-551" opacity=".98"/><circle r="4" cx="1551" cy="-514" opacity=".36"/><circle r="4" cx="1728" cy="1115" opacity=".12"/><circle r="4" cx="134" cy="1503" opacity=".29"/><circle r="4" cx="-459" cy="-28" opacity=".23"/><circle r="4" cx="983" cy="-818" opacity=".36"/><circle r="4" cx="1955" cy="511" opacity=".1"/><circle r="4" cx="763" cy="1650" opacity=".98"/><circle r="4" cx="-523" cy="615" opacity=".49"/><circle r="4" cx="337" cy="-796" opacity=".58"/><circle r="4" cx="1850" cy="-128" opacity=".22"/><circle r="4" cx="1383" cy="1461" opacity=".37"/><circle r="4" cx="-255" cy="1206" opacity=".18"/><circle r="4" cx="-215" cy="-453" opacity=".35"/><circle r="4" cx="1437" cy="-631" opacity=".97"/><circle r="4" cx="1829" cy="986" opacity=".47"/><circle r="4" cx="275" cy="1586" opacity=".21"/><circle r="4" cx="-523" cy="122" opacity=".16"/><circle r="4" cx="826" cy="-861" opacity=".21"/><circle r="4" cx="1978" cy="349" opacity=".77"/><circle r="4" cx="927" cy="1651" opacity=".39"/><circle r="4" cx="-502" cy="778" opacity=".53"/><circle r="4" cx="178" cy="-755" opacity=".84"/><circle r="4" cx="1788" cy="-280" opacity=".35"/><circle r="4" cx="1527" cy="1380" opacity=".76"/><circle r="4" cx="-155" cy="1338" opacity=".25"/><circle r="4" cx="-333" cy="-337" opacity=".22"/><circle r="4" cx="1307" cy="-732" opacity=".79"/><circle r="4" cx="1913" cy="843" opacity=".21"/><circle r="4" cx="428" cy="1651" opacity=".58"/><circle r="4" cx="-567" cy="282" opacity=".35"/><circle r="4" cx="661" cy="-884" opacity=".48"/><circle r="4" cx="1979" cy="183" opacity=".83"/><circle r="4" cx="1092" cy="1630" opacity=".39"/><circle r="4" cx="-460" cy="939" opacity=".58"/><circle r="4" cx="23" cy="-692" opacity=".48"/><circle r="4" cx="1705" cy="-426" opacity=".46"/><circle r="4" cx="1660" cy="1279" opacity=".33"/><circle r="4" cx="-38" cy="1457" opacity=".63"/><circle r="4" cx="-436" cy="-205" opacity=".9"/><circle r="4" cx="1162" cy="-817" opacity=".62"/><circle r="4" cx="1978" cy="688" opacity=".48"/><circle r="4" cx="590" cy="1695" opacity=".66"/><circle r="4" cx="-591" cy="449" opacity=".98"/><circle r="4" cx="492" cy="-885" opacity=".34"/><circle r="4" cx="1958" cy="15" opacity=".78"/><circle r="4" cx="1256" cy="1588" opacity=".31"/><circle r="4" cx="-397" cy="1096" opacity=".95"/><circle r="4" cx="-124" cy="-609" opacity=".55"/><circle r="4" cx="1603" cy="-561" opacity=".1"/><circle r="4" cx="1781" cy="1160" opacity=".11"/><circle r="4" cx="96" cy="1561" opacity=".27"/><circle r="4" cx="-522" cy="-58" opacity=".68"/><circle r="4" cx="1005" cy="-884" opacity=".76"/><circle r="4" cx="2023" cy="524" opacity=".48"/><circle r="4" cx="759" cy="1719" opacity=".59"/><circle r="4" cx="-592" cy="620" opacity=".91"/><circle r="4" cx="323" cy="-864" opacity=".45"/><circle r="4" cx="1915" cy="-151" opacity=".4"/><circle r="4" cx="1415" cy="1523" opacity=".95"/><circle r="4" cx="-312" cy="1245" opacity=".56"/><circle r="4" cx="-261" cy="-505" opacity=".5"/><circle r="4" cx="1482" cy="-683" opacity=".59"/><circle r="4" cx="1887" cy="1024" opacity=".81"/><circle r="4" cx="245" cy="1649" opacity=".79"/><circle r="4" cx="-589" cy="101" opacity=".28"/><circle r="4" cx="838" cy="-929" opacity=".91"/><circle r="4" cx="2047" cy="353" opacity=".47"/><circle r="4" cx="932" cy="1720" opacity=".18"/><circle r="4" cx="-570" cy="792" opacity=".59"/><circle r="4" cx="155" cy="-821" opacity=".66"/><circle r="4" cx="1850" cy="-312" opacity=".12"/><circle r="4" cx="1566" cy="1437" opacity=".66"/><circle r="4" cx="-207" cy="1384" opacity=".17"/><circle r="4" cx="-385" cy="-383" opacity=".29"/><circle r="4" cx="1345" cy="-790" opacity=".98"/><circle r="4" cx="1975" cy="873" opacity=".27"/><circle r="4" cx="406" cy="1717" opacity=".18"/><circle r="4" cx="-636" cy="269" opacity=".69"/><circle r="4" cx="665" cy="-953" opacity=".58"/><circle r="4" cx="2048" cy="178" opacity=".91"/><circle r="4" cx="1106" cy="1698" opacity=".13"/><circle r="4" cx="-526" cy="962" opacity=".99"/><circle r="4" cx="-8" cy="-754" opacity=".67"/><circle r="4" cx="1763" cy="-465" opacity=".81"/><circle r="4" cx="1706" cy="1331" opacity=".61"/><circle r="4" cx="-83" cy="1509" opacity=".88"/><circle r="4" cx="-494" cy="-243" opacity=".81"/><circle r="4" cx="1192" cy="-880" opacity=".52"/><circle r="4" cx="2044" cy="710" opacity=".5"/><circle r="4" cx="577" cy="1764" opacity=".35"/><circle r="4" cx="-660" cy="445" opacity=".66"/><circle r="4" cx="487" cy="-955" opacity=".31"/><circle r="4" cx="2026" cy="1" opacity=".93"/><circle r="4" cx="1279" cy="1653" opacity=".67"/><circle r="4" cx="-459" cy="1127" opacity=".85"/><circle r="4" cx="-163" cy="-666" opacity=".32"/><circle r="4" cx="1655" cy="-607" opacity=".44"/><circle r="4" cx="1834" cy="1205" opacity=".78"/><circle r="4" cx="58" cy="1619" opacity=".23"/><circle r="4" cx="-584" cy="-89" opacity=".15"/><circle r="4" cx="1027" cy="-949" opacity=".59"/><circle r="4" cx="2092" cy="537" opacity=".42"/><circle r="4" cx="755" cy="1788" opacity=".28"/><circle r="4" cx="-661" cy="625" opacity=".98"/><circle r="4" cx="309" cy="-932" opacity=".89"/><circle r="4" cx="1981" cy="-173" opacity=".18"/><circle r="4" cx="1446" cy="1585" opacity=".48"/><circle r="4.5" cx="-370" cy="1284" opacity=".32"/><circle r="4.5" cx="-307" cy="-557" opacity=".31"/><circle r="4.5" cx="1528" cy="-736" opacity=".66"/><circle r="4.5" cx="1945" cy="1063" opacity=".13"/><circle r="4.5" cx="214" cy="1711" opacity=".75"/><circle r="4.5" cx="-655" cy="78" opacity=".87"/><circle r="4.5" cx="852" cy="-998" opacity=".7"/><circle r="4.5" cx="2116" cy="357" opacity=".41"/><circle r="4.5" cx="937" cy="1789" opacity=".39"/><circle r="4.5" cx="-638" cy="805" opacity=".36"/><circle r="4.5" cx="132" cy="-886" opacity=".22"/><circle r="4.5" cx="1912" cy="-342" opacity=".89"/><circle r="4.5" cx="1604" cy="1495" opacity=".8"/><circle r="4.5" cx="-259" cy="1430" opacity=".79"/><circle r="4.5" cx="-438" cy="-428" opacity=".33"/><circle r="4.5" cx="1383" cy="-848" opacity=".34"/><circle r="4.5" cx="2037" cy="904" opacity=".49"/><circle r="4.5" cx="384" cy="1782" opacity=".75"/><circle r="4.5" cx="-704" cy="256" opacity=".71"/><circle r="4.5" cx="670" cy="-1023" opacity=".43"/><circle r="4.5" cx="2118" cy="173" opacity=".78"/><circle r="4.5" cx="1120" cy="1766" opacity=".83"/><circle r="4.5" cx="-592" cy="984" opacity=".14"/><circle r="4.5" cx="-39" cy="-817" opacity=".51"/><circle r="4.5" cx="1821" cy="-503" opacity=".34"/><circle r="4.5" cx="1752" cy="1383" opacity=".62"/><circle r="4.5" cx="-129" cy="1562" opacity=".62"/><circle r="4.5" cx="-551" cy="-282" opacity=".48"/><circle r="4.5" cx="1223" cy="-942" opacity=".56"/><circle r="4.5" cx="2110" cy="733" opacity=".66"/><circle r="4.5" cx="563" cy="1832" opacity=".71"/><circle r="4.5" cx="-729" cy="440" opacity=".78"/><circle r="4.5" cx="483" cy="-1024" opacity=".14"/><circle r="4.5" cx="2095" cy="-12" opacity=".53"/><circle r="4.5" cx="1301" cy="1719" opacity=".93"/><circle r="4.5" cx="-521" cy="1157" opacity=".64"/><circle r="4.5" cx="-201" cy="-724" opacity=".79"/><circle r="4.5" cx="1708" cy="-652" opacity=".57"/><circle r="4.5" cx="1885" cy="1252" opacity=".45"/><circle r="4.5" cx="19" cy="1677" opacity=".75"/><circle r="4.5" cx="-646" cy="-120" opacity=".87"/><circle r="4.5" cx="1050" cy="-1015" opacity=".27"/><circle r="4.5" cx="2160" cy="551" opacity=".88"/><circle r="4.5" cx="750" cy="1857" opacity=".31"/><circle r="4.5" cx="-730" cy="629" opacity=".11"/><circle r="4.5" cx="296" cy="-1001" opacity=".74"/><circle r="4.5" cx="2047" cy="-195" opacity=".55"/><circle r="4.5" cx="1476" cy="1648" opacity=".9"/><circle r="4.5" cx="-428" cy="1322" opacity=".97"/><circle r="4.5" cx="-353" cy="-610" opacity=".45"/><circle r="4.5" cx="1574" cy="-787" opacity=".48"/><circle r="4.5" cx="2002" cy="1102" opacity=".29"/><circle r="4.5" cx="183" cy="1773" opacity=".8"/><circle r="4.5" cx="-720" cy="55" opacity=".52"/><circle r="4.5" cx="866" cy="-1066" opacity=".59"/><circle r="4.5" cx="2186" cy="363" opacity=".33"/><circle r="4.5" cx="941" cy="1859" opacity=".66"/><circle r="4.5" cx="-707" cy="818" opacity=".26"/></g></svg>